<svg width="468" height="422" viewBox="0 0 468 422" fill="none" xmlns="http://www.w3.org/2000/svg">
<path fill-rule="evenodd" clip-rule="evenodd" d="M131.012 25.8711C131.012 11.9884 142.266 0.734131 156.149 0.734131H306.633C320.516 0.734131 331.77 11.9883 331.77 25.8711V392.328C331.77 406.211 320.516 417.465 306.633 417.465H156.149C142.266 417.465 131.012 406.211 131.012 392.328V25.8711Z" fill="#00CFE8" fill-opacity="0.225361"/>
<path fill-rule="evenodd" clip-rule="evenodd" d="M138.252 37.6062C138.252 27.3768 146.545 19.0842 156.774 19.0842H305.349C315.579 19.0842 323.871 27.3768 323.871 37.6062V386.067C323.871 396.296 315.579 404.589 305.349 404.589H156.774C146.545 404.589 138.252 396.296 138.252 386.067V37.6062Z" fill="white"/>
<mask id="mask0_13_3485" style="mask-type:luminance" maskUnits="userSpaceOnUse" x="138" y="19" width="186" height="386">
<path fill-rule="evenodd" clip-rule="evenodd" d="M138.252 37.6062C138.252 27.3768 146.545 19.0842 156.774 19.0842H305.349C315.579 19.0842 323.871 27.3768 323.871 37.6062V386.067C323.871 396.296 315.579 404.589 305.349 404.589H156.774C146.545 404.589 138.252 396.296 138.252 386.067V37.6062Z" fill="white"/>
</mask>
<g mask="url(#mask0_13_3485)">
<ellipse cx="222.556" cy="241.082" rx="15.9208" ry="15.9236" fill="#68DE9E" fill-opacity="0.642073"/>
<path fill-rule="evenodd" clip-rule="evenodd" d="M158.623 242.077C201.076 242.077 235.491 276.498 235.491 318.958C235.491 361.418 201.076 395.839 158.623 395.839C116.171 395.839 81.7559 361.418 81.7559 318.958C81.7559 276.498 116.171 242.077 158.623 242.077ZM158.623 275.666C134.718 275.666 115.339 295.048 115.339 318.958C115.339 342.868 134.718 362.25 158.623 362.25C182.529 362.25 201.908 342.868 201.908 318.958C201.908 295.048 182.529 275.666 158.623 275.666Z" fill="url(#paint0_linear_13_3485)"/>
</g>
<path d="M250.234 7.53223C251.952 7.53223 253.344 8.86896 253.344 10.5179C253.344 12.1302 252.013 13.444 250.348 13.5016L250.234 13.5036H195.172C193.455 13.5036 192.062 12.1669 192.062 10.5179C192.062 8.9056 193.393 7.59179 195.058 7.5342L195.172 7.53223H250.234Z" fill="#56CDD9"/>
<path d="M260.347 7.03442C262.064 7.03442 263.456 8.42686 263.456 10.1445C263.456 11.824 262.125 13.1925 260.461 13.2525L260.347 13.2546H260.184C258.466 13.2546 257.074 11.8622 257.074 10.1445C257.074 8.46503 258.405 7.09647 260.07 7.03647L260.184 7.03442H260.347Z" fill="#56CDD9"/>
<path fill-rule="evenodd" clip-rule="evenodd" d="M307.012 225.734C307.012 222.42 309.698 219.734 313.012 219.734H343.376L355.012 231.734V270.734C355.012 274.048 352.325 276.734 349.012 276.734H313.012C309.698 276.734 307.012 274.048 307.012 270.734V225.734Z" fill="#FB9C9D"/>
<path fill-rule="evenodd" clip-rule="evenodd" d="M317.052 261.734V256.964H320.076C321.456 256.964 322.53 256.616 323.298 255.92C324.066 255.224 324.45 254.252 324.45 253.004C324.45 251.756 324.066 250.784 323.298 250.088C322.53 249.392 321.456 249.044 320.076 249.044H314.244V261.734H317.052ZM319.716 254.84H317.052V251.186H319.716C320.424 251.186 320.952 251.336 321.3 251.636C321.648 251.936 321.822 252.398 321.822 253.022C321.822 254.234 321.12 254.84 319.716 254.84ZM331.2 261.734C332.592 261.734 333.786 261.482 334.782 260.978C335.778 260.474 336.537 259.745 337.059 258.791C337.581 257.837 337.842 256.7 337.842 255.38C337.842 254.06 337.578 252.926 337.05 251.978C336.522 251.03 335.76 250.304 334.764 249.8C333.768 249.296 332.58 249.044 331.2 249.044H326.268V261.734H331.2ZM331.002 259.466H329.076V251.312H331.002C333.702 251.312 335.052 252.668 335.052 255.38C335.052 258.104 333.702 259.466 331.002 259.466ZM342.774 261.734V256.388H348.21V254.174H342.774V251.258H348.57V249.044H340.002V261.734H342.774Z" fill="white"/>
<path opacity="0.33996" d="M355.011 231.734H346.375C344.718 231.734 343.375 230.391 343.375 228.734V219.734L355.011 231.734Z" fill="#EA5455"/>
<path fill-rule="evenodd" clip-rule="evenodd" d="M169.012 301.734C169.012 298.42 171.698 295.734 175.012 295.734H205.376L217.012 307.734V346.734C217.012 350.048 214.325 352.734 211.012 352.734H175.012C171.698 352.734 169.012 350.048 169.012 346.734V301.734Z" fill="#FFBC7C"/>
<path fill-rule="evenodd" clip-rule="evenodd" d="M177.012 328.234C177.012 327.958 177.236 327.734 177.512 327.734H184.512C184.788 327.734 185.012 327.958 185.012 328.234V342.234C185.012 342.51 184.788 342.734 184.512 342.734H177.512C177.236 342.734 177.012 342.51 177.012 342.234V328.234Z" fill="white"/>
<path fill-rule="evenodd" clip-rule="evenodd" d="M189.012 318.234C189.012 317.958 189.236 317.734 189.512 317.734H196.512C196.788 317.734 197.012 317.958 197.012 318.234V342.234C197.012 342.51 196.788 342.734 196.512 342.734H189.512C189.236 342.734 189.012 342.51 189.012 342.234V318.234Z" fill="white"/>
<path fill-rule="evenodd" clip-rule="evenodd" d="M201.012 325.234C201.012 324.958 201.236 324.734 201.512 324.734H208.512C208.788 324.734 209.012 324.958 209.012 325.234V342.234C209.012 342.51 208.788 342.734 208.512 342.734H201.512C201.236 342.734 201.012 342.51 201.012 342.234V325.234Z" fill="white"/>
<path opacity="0.732678" d="M217.011 307.734H208.375C206.718 307.734 205.375 306.391 205.375 304.734V295.734L217.011 307.734Z" fill="#FC9735"/>
<path fill-rule="evenodd" clip-rule="evenodd" d="M237.012 264.734C237.012 261.42 239.698 258.734 243.012 258.734H273.376L285.012 270.734V309.734C285.012 313.048 282.325 315.734 279.012 315.734H243.012C239.698 315.734 237.012 313.048 237.012 309.734V264.734Z" fill="#B7B0FF"/>
<circle cx="253.304" cy="295.884" r="4.8" fill="white"/>
<circle cx="264.812" cy="293.812" r="4.8" fill="white"/>
<path fill-rule="evenodd" clip-rule="evenodd" d="M269.612 278.338V293.451H267.812L267.811 282.012L258.089 285.163V295.74H256.289L256.29 282.655L269.612 278.338Z" fill="white"/>
<path opacity="0.33996" d="M285.011 270.734H276.375C274.718 270.734 273.375 269.391 273.375 267.734V258.734L285.011 270.734Z" fill="#564EA6"/>
<path opacity="0.272833" fill-rule="evenodd" clip-rule="evenodd" d="M292.121 75.4861C292.121 69.548 287.307 64.7341 281.369 64.7341H180.214C174.276 64.7341 169.462 69.548 169.462 75.4861V196.347C169.462 202.285 174.276 207.099 180.214 207.099H281.369C287.307 207.099 292.121 202.285 292.121 196.347V75.4861Z" fill="#00CFE8"/>
<path fill-rule="evenodd" clip-rule="evenodd" d="M282.844 86.1634C282.844 80.2252 278.03 75.4114 272.092 75.4114H190.88C184.942 75.4114 180.128 80.2252 180.128 86.1634V96.4133C180.128 102.351 184.942 107.165 190.88 107.165H272.092C278.03 107.165 282.844 102.351 282.844 96.4133V86.1634Z" fill="#F4FEFF"/>
<path fill-rule="evenodd" clip-rule="evenodd" d="M275.9 91.1773C275.9 85.4186 271.232 80.7502 265.473 80.7502H264.107C258.348 80.7502 253.68 85.4186 253.68 91.1773C253.68 96.936 258.348 101.604 264.107 101.604H265.473C271.232 101.604 275.9 96.936 275.9 91.1773Z" fill="#7367F0" fill-opacity="0.210173"/>
<path fill-rule="evenodd" clip-rule="evenodd" d="M282.844 127.872C282.844 121.934 278.03 117.12 272.092 117.12H190.88C184.942 117.12 180.128 121.934 180.128 127.872V138.122C180.128 144.06 184.942 148.874 190.88 148.874H272.092C278.03 148.874 282.844 144.06 282.844 138.122V127.872Z" fill="#F4FEFF"/>
<path fill-rule="evenodd" clip-rule="evenodd" d="M275.9 132.886C275.9 127.127 271.232 122.458 265.473 122.458H264.107C258.348 122.458 253.68 127.127 253.68 132.886C253.68 138.644 258.348 143.313 264.107 143.313H265.473C271.232 143.313 275.9 138.644 275.9 132.886Z" fill="#7367F0" fill-opacity="0.210173"/>
<path fill-rule="evenodd" clip-rule="evenodd" d="M282.844 169.58C282.844 163.642 278.03 158.828 272.092 158.828H190.88C184.942 158.828 180.128 163.642 180.128 169.58V179.83C180.128 185.768 184.942 190.582 190.88 190.582H272.092C278.03 190.582 282.844 185.768 282.844 179.83V169.58Z" fill="#F4FEFF"/>
<path fill-rule="evenodd" clip-rule="evenodd" d="M275.9 174.594C275.9 168.835 271.232 164.167 265.473 164.167H264.107C258.348 164.167 253.68 168.835 253.68 174.594C253.68 180.353 258.348 185.021 264.107 185.021H265.473C271.232 185.021 275.9 180.353 275.9 174.594Z" fill="#7367F0" fill-opacity="0.210173"/>
<path fill-rule="evenodd" clip-rule="evenodd" d="M394.012 55.4397C394.012 53.2306 395.803 51.4397 398.012 51.4397L404.307 51.4397C406.516 51.4397 408.307 53.2306 408.307 55.4397V58.2738C408.307 58.9471 408.853 59.493 409.526 59.493H454.938C457.147 59.493 458.938 61.2839 458.938 63.493V102.307C458.938 104.516 457.147 106.307 454.938 106.307H398.012C395.803 106.307 394.012 104.516 394.012 102.307V55.4397Z" fill="#FF9F43"/>
<path fill-rule="evenodd" clip-rule="evenodd" d="M409.414 56.2772C409.509 55.6855 410.019 55.25 410.618 55.25H460.213C460.963 55.25 461.535 55.9207 461.417 56.6613L453.966 103.375C453.872 103.967 453.361 104.402 452.762 104.402H403.167C402.417 104.402 401.845 103.731 401.963 102.991L409.414 56.2772Z" fill="url(#paint1_linear_13_3485)"/>
<path fill-rule="evenodd" clip-rule="evenodd" d="M462.706 67.7324C465.221 67.7324 467.113 70.0266 466.633 72.4959L461.197 100.453C460.466 104.212 457.173 106.926 453.344 106.926H398.864C396.349 106.926 394.458 104.632 394.938 102.163L400.374 74.2056C401.105 70.4464 404.397 67.7324 408.227 67.7324L462.706 67.7324Z" fill="#FABB7E"/>
<path fill-rule="evenodd" clip-rule="evenodd" d="M360.012 147.734C360.012 144.42 362.698 141.734 366.012 141.734H422.012C425.325 141.734 428.012 144.42 428.012 147.734V192.734C428.012 196.048 425.325 198.734 422.012 198.734H366.012C362.698 198.734 360.012 196.048 360.012 192.734V147.734Z" fill="#77ECAB"/>
<path fill-rule="evenodd" clip-rule="evenodd" d="M387.186 161.306C386.643 161.042 386.012 161.437 386.012 162.04V178.397C386.012 179.008 386.658 179.403 387.201 179.124L403.559 170.729C404.157 170.422 404.148 169.563 403.543 169.269L387.186 161.306Z" fill="white"/>
<rect x="367.012" y="146.734" width="6" height="6" fill="white"/>
<rect x="379.012" y="146.734" width="6" height="6" fill="white"/>
<rect x="391.012" y="146.734" width="6" height="6" fill="white"/>
<rect x="403.012" y="146.734" width="6" height="6" fill="white"/>
<rect x="415.012" y="146.734" width="6" height="6" fill="white"/>
<rect x="367.012" y="186.734" width="6" height="6" fill="white"/>
<rect x="379.012" y="186.734" width="6" height="6" fill="white"/>
<rect x="391.012" y="186.734" width="6" height="6" fill="white"/>
<rect x="403.012" y="186.734" width="6" height="6" fill="white"/>
<rect x="415.012" y="186.734" width="6" height="6" fill="white"/>
<path fill-rule="evenodd" clip-rule="evenodd" d="M38.4266 395.192L34.8232 416.949L47.2517 416.882L47.6719 394.851L38.4266 395.192Z" fill="#B8B6C9"/>
<path fill-rule="evenodd" clip-rule="evenodd" d="M33.8357 408.736L33.7477 410.569C32.4206 412.036 31.8532 415.069 32.0456 419.667C32.0456 422.743 49.8274 422.651 50.814 419.667C51.1507 414.676 50.546 411.578 49 410.373L48.9903 408.602C48.9841 407.454 48.2068 406.452 47.0915 406.153L44.8411 405.551C42.8993 402.728 40.253 402.828 37.9853 405.904L35.8532 406.365C34.7186 406.61 33.8911 407.583 33.8357 408.736Z" fill="#2F2B57"/>
<path fill-rule="evenodd" clip-rule="evenodd" d="M80.5781 223.683C80.5781 223.683 64.5083 311.963 61.6905 321.156C58.8727 330.349 51.0581 399.494 51.0581 399.494L34.1785 399.542C34.1785 399.542 33.8189 346.315 35.524 337.761C37.2291 329.207 41.078 315.118 41.078 315.118C41.078 315.118 43.9376 263.973 45.6485 252.042C47.3588 240.112 52.8496 222.428 52.8496 222.428L80.5781 223.683Z" fill="#2F2B57"/>
<path fill-rule="evenodd" clip-rule="evenodd" d="M68.3484 289.171L69.8906 277.155L68.7623 280.463C63.1447 297.037 59.3251 309.903 57.3035 319.06C55.6022 326.766 55.2445 340.069 56.2304 358.971L57.3511 349.709C58.9669 336.593 60.5379 325.082 61.6487 321.298L61.7584 320.93C62.8022 317.336 65.4026 304.445 68.3484 289.171Z" fill="white" fill-opacity="0.192499"/>
<path fill-rule="evenodd" clip-rule="evenodd" d="M79.2529 398.284L90.5969 398.36L90.6 398.678C90.6375 400.24 91.0631 407.13 95.6181 409.775L96.527 410.312C101.656 413.385 108.752 418.328 108.752 418.328L78.3872 419.36L79.2529 398.284Z" fill="#B8B6C9"/>
<path fill-rule="evenodd" clip-rule="evenodd" d="M80.8225 406.001C78.1627 405.756 76.8328 410.858 76.8328 421.307L90.4508 421.357L91.3736 419.36L92.2407 419.709C94.0873 420.434 95.3988 420.835 96.175 420.91L96.8956 420.976C100.714 421.306 106.005 421.46 112.77 421.439L112.792 421.323C112.907 420.614 113.21 416.834 107.33 413.96L107.054 413.828C100.35 410.687 95.4385 406.251 94.3777 405.661L94.3263 405.634C93.3763 405.167 93.996 404.902 92.6462 406.001C91.2964 407.099 91.0741 409.987 88.0155 410.077C84.0787 410.194 84.8122 406.368 80.8225 406.001Z" fill="#2F2B57"/>
<path fill-rule="evenodd" clip-rule="evenodd" d="M65.103 265.29C69.4538 280.979 73.0002 319.289 73.0002 319.289C73.0002 319.289 73.4006 323.325 71.6674 334.505C69.9341 345.686 76.7636 400.087 76.7636 400.087L94.7397 400.124C94.7397 400.124 96.9569 327.04 97.0621 319.354C97.2263 307.369 101.113 224.273 101.113 224.273L63.7269 223.422C63.7269 223.422 60.7522 249.602 65.103 265.29Z" fill="#353160"/>
<path fill-rule="evenodd" clip-rule="evenodd" d="M91.3156 255.72L91.3862 256.027C93.9686 266.887 89.5398 315.015 90.8007 326.458L91.3029 330.552C92.1793 337.91 93.6624 351.323 95.7522 370.791L96.2055 354.495C96.6216 339.009 96.9753 324.437 97.0519 320.005L97.0621 319.354C97.2263 307.369 101.113 224.273 101.113 224.273L94.1192 224.115L93.8134 225.459C90.726 239.228 89.8934 249.315 91.3156 255.72Z" fill="white" fill-opacity="0.192499"/>
<path d="M97.2254 408.736L98.0859 407.243" stroke="white" stroke-width="2" stroke-linecap="round"/>
<path d="M99.7625 410.443L100.623 408.95" stroke="white" stroke-width="2" stroke-linecap="round"/>
<path d="M102.298 412.149L103.158 410.656" stroke="white" stroke-width="2" stroke-linecap="round"/>
<path fill-rule="evenodd" clip-rule="evenodd" d="M91.9782 115.904C95.883 116.33 95.6061 123.19 90.8528 123.548C89.8812 130.161 86.4165 133.312 82.1923 133.676L82.4266 143.679L63.7419 143.668C63.7419 143.668 69.0035 136.602 68.7412 126.928C68.4789 117.255 68.9172 108.167 68.9172 108.167L93.1181 108.601L91.9782 115.904Z" fill="url(#paint2_linear_13_3485)"/>
<path fill-rule="evenodd" clip-rule="evenodd" d="M93.8514 111.829C95.535 112.641 94.1946 116.314 93.3421 116.314C89.4309 114.769 86.1882 120.334 84.5398 125.923C79.8584 130.513 69.5149 130.614 68.4463 126.775C64.4007 118.366 64.2023 106.208 68.9234 105.269C65.2174 95.4978 115.267 90.3862 93.8514 111.829Z" fill="url(#paint3_linear_13_3485)"/>
<path fill-rule="evenodd" clip-rule="evenodd" d="M89.6712 127.295C89.479 126.874 88.3327 129.758 86.4798 131.304C84.5622 132.904 81.6838 133.373 82.1907 133.676C86.081 136.005 91.2373 130.728 89.6712 127.295Z" fill="url(#paint4_linear_13_3485)"/>
<path fill-rule="evenodd" clip-rule="evenodd" d="M17.5116 162.307C17.5116 162.307 18.3325 156.779 18.072 153.142C17.5901 146.416 18.5117 140.741 17.0222 139.859C15.1117 138.727 14.6339 148.77 14.6339 148.77C14.6339 148.77 3.72306 131.009 1.44838 133.155C-0.826298 135.3 3.91861 144.634 3.16624 147.333C2.41387 150.031 9.93231 163.085 9.93231 163.085L17.5116 162.307Z" fill="url(#paint5_linear_13_3485)"/>
<path fill-rule="evenodd" clip-rule="evenodd" d="M57.846 165.5C57.846 165.5 41.319 191.206 37.6678 196.192C33.8381 201.42 27.0743 203.735 22.2744 195.395C18.0289 188.016 8.93842 169.539 7.78791 163.795C6.92956 159.51 15.7215 153.122 19.947 159.526C24.1726 165.929 30.8462 175.558 30.8462 175.558C30.8462 175.558 41.8202 155.677 45.2413 150.986C54.4671 138.335 68.5238 149.695 57.846 165.5Z" fill="#02C4DC"/>
<path fill-rule="evenodd" clip-rule="evenodd" d="M30.8457 175.558L27.2144 181.81L28.5377 172.16L30.8457 175.558Z" fill="black" fill-opacity="0.159856"/>
<path d="M19.6396 159.733C15.8001 158.519 12.2845 159.165 9.47902 163.89" stroke="#5386BF" stroke-linecap="round"/>
<path fill-rule="evenodd" clip-rule="evenodd" d="M65.7663 138.805L85.0733 138.93L85.8636 139.248C89.0485 140.554 100.877 145.64 103.08 149.995C106.762 157.273 101.911 215.58 104.026 219.099C108.487 226.521 102.66 231.64 83.2959 233.576L82.7049 233.634C62.869 235.525 45.2712 233.976 48.4645 223.971C51.6587 213.965 41.8859 149.518 51.0502 145.066L65.7663 138.805Z" fill="#00CFE8"/>
<path fill-rule="evenodd" clip-rule="evenodd" d="M86.5888 153.572C83.7285 159.799 89.4098 176.004 103.633 202.187L103.809 196.338C104.274 181.738 104.958 163.941 104.099 154.985C95.1159 148.186 89.2795 147.715 86.5888 153.572Z" fill="black" fill-opacity="0.159856"/>
<path fill-rule="evenodd" clip-rule="evenodd" d="M86.3724 137.096C85.1713 136.768 65.0585 137.096 64.2594 137.096C63.4603 137.096 63.4603 140.514 64.2594 140.514C64.748 140.514 70.9855 140.421 86.3738 140.234C87.7624 140.218 91.4668 141.788 91.4668 141.788C91.4668 141.788 87.5735 137.424 86.3724 137.096Z" fill="url(#paint6_linear_13_3485)"/>
<path fill-rule="evenodd" clip-rule="evenodd" d="M164.396 196.495C164.396 196.495 174.926 198.166 176.912 196.524C178.898 194.883 186.81 183.723 185.946 181.802C185.082 179.882 177.863 183.943 177.248 182.722C176.457 181.153 180.539 175.557 176.962 175.231C176.041 175.146 175.39 178.591 172.796 180.86C170.203 183.13 163.942 188.163 163.942 188.163L164.396 196.495Z" fill="url(#paint7_linear_13_3485)"/>
<path fill-rule="evenodd" clip-rule="evenodd" d="M100.761 147.365C109.861 156.024 122.745 176.47 125.491 178.271C128.236 180.073 162.58 183.706 165.814 186.639C168.515 189.088 168.758 196.542 165.814 198.61C162.869 200.677 124.202 197.905 117.11 195.839C110.018 193.773 97.8713 174.84 92.4454 168.93C77.2714 152.403 91.6609 138.707 100.761 147.365Z" fill="#02C4DC"/>
<path d="M162.242 185.438C163.942 187.428 164.8 190.327 163.942 195.991" stroke="#5386BF" stroke-linecap="round"/>
<defs>
<linearGradient id="paint0_linear_13_3485" x1="114.08" y1="422.65" x2="239.749" y2="358.009" gradientUnits="userSpaceOnUse">
<stop stop-color="#F8FDFF"/>
<stop offset="1" stop-color="#88EFB6"/>
</linearGradient>
<linearGradient id="paint1_linear_13_3485" x1="456.574" y1="70.6744" x2="456.574" y2="41.744" gradientUnits="userSpaceOnUse">
<stop stop-color="#F8FDFF"/>
<stop offset="1" stop-color="#AAD4FF"/>
</linearGradient>
<linearGradient id="paint2_linear_13_3485" x1="100.038" y1="99.5226" x2="96.9094" y2="141.81" gradientUnits="userSpaceOnUse">
<stop stop-color="#FDC6C6"/>
<stop offset="1" stop-color="#FAB2B2"/>
</linearGradient>
<linearGradient id="paint3_linear_13_3485" x1="96.4316" y1="107.363" x2="58.6157" y2="107.363" gradientUnits="userSpaceOnUse">
<stop stop-color="#3F4044"/>
<stop offset="1" stop-color="#222735"/>
</linearGradient>
<linearGradient id="paint4_linear_13_3485" x1="92.4179" y1="138.028" x2="77.6825" y2="140.34" gradientUnits="userSpaceOnUse">
<stop stop-color="#4D63A0"/>
<stop offset="1" stop-color="#222735"/>
</linearGradient>
<linearGradient id="paint5_linear_13_3485" x1="21.1162" y1="125.645" x2="17.1213" y2="161.249" gradientUnits="userSpaceOnUse">
<stop stop-color="#FDC6C6"/>
<stop offset="1" stop-color="#FAB2B2"/>
</linearGradient>
<linearGradient id="paint6_linear_13_3485" x1="142.375" y1="130.055" x2="142.319" y2="153.818" gradientUnits="userSpaceOnUse">
<stop stop-color="#D7FFFF"/>
<stop offset="1" stop-color="#648BF0"/>
</linearGradient>
<linearGradient id="paint7_linear_13_3485" x1="189.831" y1="169.87" x2="188.142" y2="196.123" gradientUnits="userSpaceOnUse">
<stop stop-color="#FDC6C6"/>
<stop offset="1" stop-color="#FAB2B2"/>
</linearGradient>
</defs>
</svg>
