<svg width="685" height="461" viewBox="0 0 685 461" fill="none" xmlns="http://www.w3.org/2000/svg">
<path fill-rule="evenodd" clip-rule="evenodd" d="M0.595703 18C0.595703 9.16344 7.75915 2 16.5957 2H486.724C495.561 2 502.724 9.16344 502.724 18V222.224C502.724 231.061 495.561 238.224 486.724 238.224H16.5957C7.75917 238.224 0.595703 231.061 0.595703 222.224V18Z" fill="#E7FCFF"/>
<path opacity="0.383371" fill-rule="evenodd" clip-rule="evenodd" d="M8.14648 18C8.14648 9.16344 15.3099 2 24.1465 2H486.724C495.561 2 502.724 9.16344 502.724 18V222.224C502.724 231.061 495.561 238.224 486.724 238.224H24.1465C15.31 238.224 8.14648 231.061 8.14648 222.224V18Z" fill="#00CFE8"/>
<path fill-rule="evenodd" clip-rule="evenodd" d="M15.6973 19.5592C15.6973 14.0363 20.1744 9.55917 25.6973 9.55917H485.173C490.696 9.55917 495.173 14.0363 495.173 19.5592V220.665C495.173 226.188 490.696 230.665 485.173 230.665H25.6973C20.1744 230.665 15.6973 226.188 15.6973 220.665L15.6973 19.5592Z" fill="#E7FCFF"/>
<path fill-rule="evenodd" clip-rule="evenodd" d="M214.85 216.822C214.85 213.509 217.536 210.822 220.85 210.822H290.021C293.334 210.822 296.021 213.509 296.021 216.822V230.665H214.85V216.822Z" fill="#D4EFFF"/>
<path d="M222.4 216.822C222.4 213.509 225.087 210.822 228.4 210.822H297.572C300.885 210.822 303.572 213.509 303.572 216.822V238.224H222.4V216.822Z" fill="#91D6FF"/>
<g filter="url(#filter0_dd_6_358)">
<path fill-rule="evenodd" clip-rule="evenodd" d="M29.8555 24.397C29.8555 21.4208 32.2681 19.0082 35.2442 19.0082H160.268C163.244 19.0082 165.657 21.4208 165.657 24.3969V65.047C165.657 68.0231 163.244 70.4357 160.268 70.4357H35.2442C32.2681 70.4357 29.8555 68.0231 29.8555 65.047V24.397Z" fill="white"/>
</g>
<path opacity="0.454078" fill-rule="evenodd" clip-rule="evenodd" d="M70.0371 49.5592C70.0371 48.7156 70.721 48.0316 71.5647 48.0316H96.9922C97.8359 48.0316 98.5198 48.7156 98.5198 49.5592C98.5198 50.4028 97.8359 51.0867 96.9922 51.0867H71.5647C70.721 51.0867 70.0371 50.4028 70.0371 49.5592Z" fill="#C7C1FF"/>
<path fill-rule="evenodd" clip-rule="evenodd" d="M70.0371 40.9031C70.0371 40.0594 70.721 39.3755 71.5647 39.3755H86.8198C87.6635 39.3755 88.3474 40.0594 88.3474 40.9031C88.3474 41.7467 87.6635 42.4306 86.8198 42.4306H71.5647C70.721 42.4306 70.0371 41.7467 70.0371 40.9031Z" fill="#8478FF"/>
<path fill-rule="evenodd" clip-rule="evenodd" d="M144.813 37.2838C146.983 34.4294 151.053 33.8765 153.904 36.0487C154.56 36.5484 155.115 37.1687 155.539 37.8763C155.758 38.2409 155.639 38.7138 155.275 38.9325C154.911 39.1512 154.439 39.033 154.22 38.6683C153.897 38.1285 153.473 37.6553 152.973 37.274C150.842 35.6506 147.819 36.0223 146.14 38.0852L146.037 38.2163L143.652 41.3533C139.927 46.2536 133.624 48.4143 127.693 46.8484L127.439 46.779L125.521 46.2369C125.397 46.202 125.273 46.1707 125.147 46.1431C121.639 45.3694 118.168 47.5409 117.309 51.0107L117.269 51.1824L116.873 52.9803C116.733 53.6166 116.462 54.2166 116.076 54.7415C114.551 56.8173 111.633 57.2622 109.559 55.7351C109.217 55.4831 109.144 55.0012 109.396 54.6587C109.647 54.3162 110.129 54.2428 110.471 54.4948C111.86 55.518 113.815 55.2199 114.837 53.829C115.063 53.5213 115.231 53.1751 115.332 52.8077L115.371 52.649L115.767 50.8511C116.735 46.4511 121.083 43.67 125.478 44.6394L125.709 44.6938L125.938 44.755L127.857 45.2971C133.172 46.7987 138.857 44.9457 142.272 40.6222L142.428 40.4209L144.813 37.2838Z" fill="#8478FF"/>
<path fill-rule="evenodd" clip-rule="evenodd" d="M137.882 36.3531C139.452 32.8566 143.557 31.2965 147.049 32.8686C147.751 33.1844 148.395 33.6149 148.956 34.1425C150.275 35.3844 151.497 37.3474 152.642 40.0347C152.808 40.4258 152.627 40.8781 152.236 41.045C151.845 41.2118 151.394 41.03 151.227 40.6389C150.158 38.1304 149.043 36.3378 147.902 35.2643C147.466 34.8537 146.965 34.5187 146.419 34.273C143.75 33.0718 140.623 34.2203 139.353 36.8376L139.285 36.9845L138.79 38.0863C138.675 38.3429 138.542 38.5913 138.394 38.8301C136.566 41.7663 132.707 42.6635 129.774 40.8341C129.425 40.6162 129.042 40.4581 128.641 40.3661C126.689 39.9186 124.745 41.1018 124.23 43.0218L124.197 43.157L123.341 46.8987C123.083 48.0261 122.535 49.0666 121.753 49.9174C119.312 52.5712 115.214 52.7854 112.513 50.4338L112.369 50.3054L108.883 47.0918C108.57 46.8038 108.55 46.3168 108.838 46.004C109.107 45.712 109.548 45.675 109.86 45.9056L109.925 45.9591L113.411 49.1726C115.484 51.0835 118.713 50.9501 120.621 48.8745C121.176 48.271 121.577 47.5433 121.792 46.7536L121.841 46.5549L122.697 42.8132C123.344 39.985 126.159 38.2174 128.984 38.8652C129.481 38.9791 129.958 39.1646 130.4 39.4156L130.588 39.5272C132.8 40.907 135.71 40.2303 137.088 38.0158C137.163 37.8958 137.232 37.7725 137.296 37.6463L137.387 37.4549L137.882 36.3531Z" fill="#C7C1FF"/>
<ellipse cx="52.4892" cy="45.2311" rx="10.4267" ry="10.4383" fill="#8478FF"/>
<g filter="url(#filter1_dd_6_358)">
<path fill-rule="evenodd" clip-rule="evenodd" d="M29.8555 82.5918C29.8555 79.8304 32.094 77.5918 34.8555 77.5918H193.805C196.566 77.5918 198.805 79.8304 198.805 82.5918V215.271C198.805 218.033 196.566 220.271 193.805 220.271H34.8555C32.094 220.271 29.8555 218.033 29.8555 215.271V82.5918Z" fill="white"/>
</g>
<mask id="mask0_6_358" style="mask-type:luminance" maskUnits="userSpaceOnUse" x="29" y="77" width="170" height="144">
<path fill-rule="evenodd" clip-rule="evenodd" d="M29.8555 82.5918C29.8555 79.8304 32.094 77.5918 34.8555 77.5918H193.805C196.566 77.5918 198.805 79.8304 198.805 82.5918V215.271C198.805 218.033 196.566 220.271 193.805 220.271H34.8555C32.094 220.271 29.8555 218.033 29.8555 215.271V82.5918Z" fill="white"/>
</mask>
<g mask="url(#mask0_6_358)">
<g filter="url(#filter2_d_6_358)">
<path d="M52.5078 187.2C52.5078 187.2 72.5929 181.425 81.4489 169.639C90.3049 157.853 93.2906 146.428 108.522 146.428C123.754 146.428 125.706 163.926 142.172 163.926C158.638 163.926 159.538 141.612 165.011 132.752C170.483 123.892 179.928 123.892 179.928 123.892" stroke="#8EEAF6" stroke-width="4.004" stroke-linecap="round"/>
</g>
<path opacity="0.414737" fill-rule="evenodd" clip-rule="evenodd" d="M52.5078 185.982C52.5078 185.982 72.5929 180.232 81.4489 168.497C90.3049 156.761 93.2906 145.386 108.522 145.386C123.754 145.386 125.706 162.808 142.172 162.808C158.638 162.808 159.538 140.591 165.011 131.769C170.483 122.947 179.928 122.947 179.928 122.947V197.349C179.928 199.05 178.549 200.429 176.848 200.429H55.5878C53.8868 200.429 52.5078 199.05 52.5078 197.349V185.982Z" fill="#CEF9FF"/>
<rect x="43.0703" y="91.7653" width="52.8556" height="5.66939" rx="2.83469" fill="#8EEAF6"/>
<path fill-rule="evenodd" clip-rule="evenodd" d="M43.0703 108.773C43.0703 107.208 44.3394 105.939 45.905 105.939H64.7757C66.3413 105.939 67.6104 107.208 67.6104 108.773C67.6104 110.339 66.3413 111.608 64.7757 111.608H45.905C44.3394 111.608 43.0703 110.339 43.0703 108.773Z" fill="#8EEAF6" fill-opacity="0.401934"/>
<ellipse cx="166.241" cy="95.0724" rx="3.30348" ry="3.30714" fill="#8EEAF6" fill-opacity="0.451705"/>
<ellipse cx="175.68" cy="95.0724" rx="3.30348" ry="3.30714" fill="#8EEAF6" fill-opacity="0.451705"/>
<ellipse cx="185.118" cy="95.0724" rx="3.30348" ry="3.30714" fill="#8EEAF6" fill-opacity="0.451705"/>
</g>
<g filter="url(#filter3_d_6_358)">
<path fill-rule="evenodd" clip-rule="evenodd" d="M225.232 39.7211C225.232 35.5876 228.583 32.2367 232.717 32.2367H457.929C462.063 32.2367 465.414 35.5876 465.414 39.7211V190.237C465.414 194.371 462.063 197.721 457.929 197.721H232.717C228.583 197.721 225.232 194.371 225.232 190.237V39.7211Z" fill="white"/>
</g>
<path fill-rule="evenodd" clip-rule="evenodd" d="M265.852 117.101V176.287H257.021V117.101H265.852Z" fill="#E7E4FF"/>
<path fill-rule="evenodd" clip-rule="evenodd" d="M265.852 131.245V176.287H257.021V131.245H265.852Z" fill="#C7C1FF"/>
<path fill-rule="evenodd" clip-rule="evenodd" d="M265.852 159.533V176.287H257.021V159.533H265.852Z" fill="#8478FF"/>
<path fill-rule="evenodd" clip-rule="evenodd" d="M287.043 102.957V176.287H278.213V102.957H287.043Z" fill="#E7E4FF"/>
<path fill-rule="evenodd" clip-rule="evenodd" d="M287.043 124.173V176.287H278.213V124.173H287.043Z" fill="#C7C1FF"/>
<path fill-rule="evenodd" clip-rule="evenodd" d="M287.043 159.533V176.287H278.213V159.533H287.043Z" fill="#8478FF"/>
<path fill-rule="evenodd" clip-rule="evenodd" d="M308.236 113.565V176.287H299.406V113.565H308.236Z" fill="#E7E4FF"/>
<path fill-rule="evenodd" clip-rule="evenodd" d="M308.236 134.781V176.287H299.406V134.781H308.236Z" fill="#C7C1FF"/>
<path fill-rule="evenodd" clip-rule="evenodd" d="M308.236 163.069V176.287H299.406V163.069H308.236Z" fill="#8478FF"/>
<path fill-rule="evenodd" clip-rule="evenodd" d="M329.428 95.8847V176.287H320.598V95.8847H329.428Z" fill="#E7E4FF"/>
<path fill-rule="evenodd" clip-rule="evenodd" d="M329.428 117.101V176.287H320.598V117.101H329.428Z" fill="#C7C1FF"/>
<path fill-rule="evenodd" clip-rule="evenodd" d="M329.428 145.389V176.287H320.598V145.389H329.428Z" fill="#8478FF"/>
<path fill-rule="evenodd" clip-rule="evenodd" d="M350.621 81.7407V176.287H341.791V81.7407H350.621Z" fill="#E7E4FF"/>
<path fill-rule="evenodd" clip-rule="evenodd" d="M350.621 110.029V176.287H341.791V110.029H350.621Z" fill="#C7C1FF"/>
<path fill-rule="evenodd" clip-rule="evenodd" d="M350.621 152.461V176.287H341.791V152.461H350.621Z" fill="#8478FF"/>
<path fill-rule="evenodd" clip-rule="evenodd" d="M371.815 102.957V176.287H362.984V102.957H371.815Z" fill="#E7E4FF"/>
<path fill-rule="evenodd" clip-rule="evenodd" d="M371.815 124.173V176.287H362.984V124.173H371.815Z" fill="#C7C1FF"/>
<path fill-rule="evenodd" clip-rule="evenodd" d="M371.815 156.704V176.287H362.984V156.704H371.815Z" fill="#8478FF"/>
<path fill-rule="evenodd" clip-rule="evenodd" d="M393.006 110.029V176.287H384.176V110.029H393.006Z" fill="#E7E4FF"/>
<path fill-rule="evenodd" clip-rule="evenodd" d="M393.006 124.173V176.287H384.176V124.173H393.006Z" fill="#C7C1FF"/>
<path fill-rule="evenodd" clip-rule="evenodd" d="M393.006 151.753V176.287H384.176V151.753H393.006Z" fill="#8478FF"/>
<path fill-rule="evenodd" clip-rule="evenodd" d="M414.199 95.8847V176.287H405.369V95.8847H414.199Z" fill="#E7E4FF"/>
<path fill-rule="evenodd" clip-rule="evenodd" d="M414.199 124.173V176.287H405.369V124.173H414.199Z" fill="#C7C1FF"/>
<path fill-rule="evenodd" clip-rule="evenodd" d="M414.199 158.825V176.287H405.369V158.825H414.199Z" fill="#8478FF"/>
<path fill-rule="evenodd" clip-rule="evenodd" d="M435.391 110.029V176.287H426.561V110.029H435.391Z" fill="#E7E4FF"/>
<path fill-rule="evenodd" clip-rule="evenodd" d="M435.391 124.173V176.287H426.561V124.173H435.391Z" fill="#C7C1FF"/>
<path fill-rule="evenodd" clip-rule="evenodd" d="M435.391 158.825V176.287H426.561V158.825H435.391Z" fill="#8478FF"/>
<path opacity="0.57573" fill-rule="evenodd" clip-rule="evenodd" d="M254.195 62.6463C254.195 61.4746 255.145 60.5247 256.317 60.5247H326.954C328.125 60.5247 329.075 61.4746 329.075 62.6463C329.075 63.818 328.125 64.7679 326.954 64.7679H256.317C255.145 64.7679 254.195 63.818 254.195 62.6463Z" fill="#8C81FF"/>
<rect x="254.195" y="48.5023" width="39.5593" height="4.2432" rx="2.1216" fill="#8478FF"/>
<path fill-rule="evenodd" clip-rule="evenodd" d="M498.038 366.882L509.48 457.29L503.481 457.21L492.038 367.728L498.038 366.882Z" fill="#BFE7FF"/>
<path fill-rule="evenodd" clip-rule="evenodd" d="M420.615 381.093C415.399 381.093 411.17 376.864 411.17 371.648C411.17 366.431 415.399 362.203 420.615 362.203H458.377C464.099 362.203 468.881 357.849 469.417 352.153L475.455 287.96C475.99 282.264 480.772 277.91 486.494 277.91H510.194C516.653 277.91 521.744 283.408 521.249 289.848L515.025 370.855C514.581 376.632 509.764 381.093 503.97 381.093H420.615Z" fill="#91D6FF"/>
<path fill-rule="evenodd" clip-rule="evenodd" d="M411.172 371.567C411.224 371.568 411.276 371.569 411.328 371.569H494.458C500.251 371.569 505.068 367.109 505.513 361.332L511.733 280.614C511.801 279.734 511.764 278.872 511.634 278.038C511.082 277.954 510.517 277.91 509.94 277.91H486.352C480.631 277.91 475.85 282.262 475.313 287.957L469.28 351.916C468.742 357.611 463.961 361.963 458.241 361.963H420.591C415.388 361.963 411.17 366.181 411.17 371.384C411.17 371.445 411.171 371.506 411.172 371.567Z" fill="#BFE7FF"/>
<path fill-rule="evenodd" clip-rule="evenodd" d="M485.274 262.34C497.472 259.498 498.275 242.746 489.001 236.935C498.565 216.875 476.448 196.958 461.298 209.241C451.366 204.987 443.113 221.586 452.354 234.478C448.479 256.613 456.366 262.335 470.582 262.578L485.274 262.34Z" fill="#422851"/>
<path fill-rule="evenodd" clip-rule="evenodd" d="M485.121 258.339C485.121 258.339 479.187 256.946 478.981 247.217C478.776 237.489 478.92 234.169 478.92 234.169L465.85 233.933C465.85 233.933 465.707 244.775 465.705 248.696C465.7 259.229 458.365 258.339 458.365 258.339C458.365 258.339 459.889 266.88 471.733 267.546C480.98 268.067 485.121 258.339 485.121 258.339Z" fill="url(#paint0_linear_6_358)"/>
<path fill-rule="evenodd" clip-rule="evenodd" d="M481.968 229.311C487.799 229.085 486.848 237.625 480.791 237.614C480.791 237.614 477.273 249.746 465.059 249.746C455.139 249.746 454.494 235.606 454.404 232.785C454.307 229.777 454.295 219.896 454.295 219.896L482.195 219.883L481.968 229.311Z" fill="url(#paint1_linear_6_358)"/>
<path d="M467.414 241.596C467.414 241.596 464.505 244.06 461.135 241.752" stroke="#F77B7B" stroke-width="1.5" stroke-linecap="round"/>
<path d="M465.492 244.45C464.587 244.868 463.715 244.898 462.937 244.482" stroke="#F49494" stroke-linecap="round"/>
<path d="M481.373 233.904C481.313 232.534 481.73 231.446 483.127 231.227" stroke="#F77B7B" stroke-linecap="round"/>
<path fill-rule="evenodd" clip-rule="evenodd" d="M482.89 228.256C482.89 228.256 479.694 232.546 479.047 232.569C478.4 232.592 478.173 226.989 478.173 226.989C474.252 226.689 464.331 224.712 461.899 220.107C460.198 224.171 456.947 225.975 454.81 225.629L454.405 234.262L453.408 216.906H483.672L482.89 228.256Z" fill="#422851"/>
<path fill-rule="evenodd" clip-rule="evenodd" d="M425.402 429.891C425.402 429.891 430.633 440.462 426.345 443.793C422.05 447.125 410.706 453.368 410.706 453.368L440.76 451.478L434.079 428.424L425.402 429.891Z" fill="url(#paint2_linear_6_358)"/>
<path fill-rule="evenodd" clip-rule="evenodd" d="M437.854 439.951C436.371 440.125 437.955 445.121 434.744 445.501C431.539 445.88 429.981 441.147 426.345 442.647C422.708 444.148 409.444 451.906 408.922 455.078C408.393 458.249 413.335 459.182 420.112 458.466C426.889 457.75 428.138 455.337 433.226 456.309C438.307 457.28 442.113 455.732 441.946 452.017C441.778 448.303 439.337 439.778 437.854 439.951Z" fill="#222D4E"/>
<path fill-rule="evenodd" clip-rule="evenodd" d="M424.685 443.417L425.345 444.407C425.669 444.893 425.51 445.551 425.001 445.835L416.035 450.841C415.744 451.003 415.392 451.01 415.095 450.86L413.703 450.153C415.889 448.569 417.676 447.379 419.652 446.21C421.168 445.313 422.847 444.388 424.685 443.417Z" fill="white" fill-opacity="0.540975"/>
<path fill-rule="evenodd" clip-rule="evenodd" d="M470.675 336.725C461.576 337.131 410.937 348.338 401.736 350.242C392.536 352.146 384.757 362.448 391.773 374.377C399.653 387.769 419.984 425.8 424.921 434.373C427.364 438.616 439.69 436.237 436.794 429.115C431.397 415.838 428.891 382.485 415.13 370.324C415.13 370.324 461.407 378.382 481.396 369.152C495.924 362.442 492.638 335.742 470.675 336.725Z" fill="url(#paint3_linear_6_358)"/>
<path fill-rule="evenodd" clip-rule="evenodd" d="M406.208 282.893C406.208 282.893 406.311 275.486 403.722 271.615C401.132 267.744 401.029 263.632 399.069 263.766C397.109 263.901 399.05 273.459 399.05 273.459C399.05 273.459 396.563 272.508 394.777 271.306C392.99 270.103 387.573 264.176 386.308 265.226C384.161 267.016 387.618 277.111 389.501 279.13C391.39 281.148 401.71 287.787 401.71 287.787L406.208 282.893Z" fill="url(#paint4_linear_6_358)"/>
<path fill-rule="evenodd" clip-rule="evenodd" d="M462.122 278.454C457.889 288.276 450.14 306.32 446.945 311.703C442.941 318.444 436.628 321.414 429.236 316.413C421.468 311.157 400.081 290.657 399.454 286.014C398.832 281.37 404.067 275.799 408.804 278.683C413.54 281.568 433.222 297.956 433.222 297.956C433.222 297.956 441.165 277.583 447.555 265.782C453.088 255.572 468.564 263.523 462.122 278.454Z" fill="#6A5EE3"/>
<path fill-rule="evenodd" clip-rule="evenodd" d="M433.141 297.966C433.141 297.966 431.007 305.206 430.509 304.787C430.01 304.368 430.89 296.074 430.89 296.074L433.141 297.966Z" fill="black" fill-opacity="0.302803"/>
<path fill-rule="evenodd" clip-rule="evenodd" d="M504.42 266.62C504.42 266.62 494.221 300.791 493.918 307.259C493.616 313.728 502.26 332.74 500.789 337.545C497.395 348.65 454.072 353.431 452.417 338.493C451.645 331.526 453.251 325.273 451.4 317.064C449.556 308.855 442.142 296.657 446.347 285.188C450.552 273.719 449.425 263.109 452.433 261.103C455.441 259.098 462.472 256.968 462.472 256.968C465.891 262.002 477.434 261.929 482.941 256.613C482.941 256.613 496.624 259.269 504.42 266.62Z" fill="#7367F0"/>
<path fill-rule="evenodd" clip-rule="evenodd" d="M495.28 272.154C488.481 282.949 488.501 301.745 484.85 304.206C481.199 306.668 466.987 304.252 466.987 306.202C466.987 308.151 486.626 326.016 483.402 334.557C481.714 339.029 482.172 343.029 484.776 346.559L485.626 346.373C493.364 344.624 499.585 341.482 500.788 337.545C502.26 332.74 492.619 313.728 492.921 307.259C493.177 301.768 501.284 276.316 503.729 268.748C501.738 265.234 498.922 266.37 495.28 272.154Z" fill="black" fill-opacity="0.199355"/>
<path fill-rule="evenodd" clip-rule="evenodd" d="M483.688 300.794C483.688 300.794 475.097 293.187 472.467 292.304C469.837 291.421 454.434 290.36 454.532 292.355C454.642 294.493 462.915 294.37 463.772 295.421C464.629 296.472 464.824 303.659 468.064 304.465C471.298 305.272 480.993 306.663 480.993 306.663L483.688 300.794Z" fill="url(#paint5_linear_6_358)"/>
<path fill-rule="evenodd" clip-rule="evenodd" d="M506.542 268.583C515.593 281.364 523.32 300.833 526.287 308.423C529.253 316.013 526.261 327.462 513.218 325.214C500.198 322.973 479.482 310.792 477.19 307.239C474.898 303.686 478.38 297.221 482.765 298.067C486.828 298.85 506.978 307.423 506.978 307.423C506.978 307.423 494.015 284.432 490.849 278.269C485.561 267.976 498.569 257.322 506.542 268.583Z" fill="#6A5EE3"/>
<path fill-rule="evenodd" clip-rule="evenodd" d="M506.772 307.265C506.772 307.265 513.562 310.641 512.734 309.225C511.906 307.81 504.181 302.837 504.181 302.837L506.772 307.265Z" fill="black" fill-opacity="0.302803"/>
<path fill-rule="evenodd" clip-rule="evenodd" d="M174.062 426.194C174.062 426.194 173.926 434.906 179.272 438C184.618 441.095 192.901 446.844 192.901 446.844L161.393 447.913L162.291 426.116L174.062 426.194Z" fill="#F8CFCF"/>
<path fill-rule="evenodd" clip-rule="evenodd" d="M160.292 435.794L159.779 449.926H167.098L167.599 448.105C167.599 448.105 170.355 447.992 171.947 448.779C173.63 449.61 173.856 450.014 173.856 450.014L197.07 450.063C197.07 450.063 198.215 445.495 191.139 442.191C184.063 438.887 178.91 434.197 177.932 433.717C176.946 433.233 174.957 432.96 173.556 434.096C172.156 435.232 171.048 438.219 167.874 438.312C163.789 438.433 161.442 433.404 160.292 435.794Z" fill="#4B4B4B"/>
<path d="M180.131 435.25L177.725 437.577" stroke="white" stroke-width="2" stroke-linecap="round"/>
<path d="M183.639 437.014L181.232 439.342" stroke="white" stroke-width="2" stroke-linecap="round"/>
<path d="M187.149 438.779L184.742 441.107" stroke="white" stroke-width="2" stroke-linecap="round"/>
<path fill-rule="evenodd" clip-rule="evenodd" d="M151 238C151 238 159.753 334.38 160.026 341.079C160.298 347.779 157.214 359.342 157.274 371.874C157.334 384.406 158.4 428.575 158.4 428.575L177.71 428.984C177.71 428.984 185.825 349.167 185.913 337.198C186 325.229 186.744 239.152 186.744 239.152L151 238Z" fill="#383838"/>
<path opacity="0.283552" fill-rule="evenodd" clip-rule="evenodd" d="M164.919 344.079L164.94 344.318C165.231 348.404 162.693 361.846 157.327 384.645L157.274 371.874C157.215 359.565 160.189 348.192 160.037 341.443L160.026 341.079C159.934 338.822 158.879 326.379 157.521 310.872L158.155 313.143C161.878 326.595 164.132 336.908 164.919 344.079Z" fill="white" fill-opacity="0.192499"/>
<path fill-rule="evenodd" clip-rule="evenodd" d="M127.478 424.966L123.754 447.525L137.482 447.456L137.916 424.613L127.478 424.966Z" fill="#F8CFCF"/>
<path fill-rule="evenodd" clip-rule="evenodd" d="M126.001 434.724C124.657 435.015 123.683 436.182 123.638 437.556L123.527 440.91C121.585 443.064 120.668 449.287 120.571 449.977C120.565 450.02 120.561 450.061 120.566 450.105C120.851 453.154 140.82 453.116 142.695 450.249C142.78 450.118 142.786 449.963 142.761 449.809C142.551 448.538 141.435 442.385 139.29 440.707L139.277 437.384C139.272 436.031 138.362 434.849 137.055 434.498L134.992 433.944C132.985 431.017 130.25 431.121 127.907 434.31L126.001 434.724Z" fill="#4B4B4B"/>
<path d="M128.686 436.748H134.243" stroke="white" stroke-width="2" stroke-linecap="round"/>
<path d="M128.686 439.393H134.243" stroke="white" stroke-width="2" stroke-linecap="round"/>
<path d="M129.57 442.037H133.36" stroke="white" stroke-width="2" stroke-linecap="round"/>
<path fill-rule="evenodd" clip-rule="evenodd" d="M134.401 239.265C134.401 239.265 128.268 305.331 128.351 317.982C128.434 330.635 130.239 336.191 127.671 345.267C125.102 354.343 122.912 426.786 122.912 426.786L141.903 428.864C141.903 428.864 154.036 351.346 155.355 340.599C156.674 329.851 172.98 238.353 172.98 238.353L134.401 239.265Z" fill="#2E2E2E"/>
<path opacity="0.283552" fill-rule="evenodd" clip-rule="evenodd" d="M139.53 284.105L138.372 288.298C134.98 300.673 131.849 313.76 132.669 332.455L132.709 333.309C132.91 337.358 130.334 360.861 124.98 403.816L124.471 406.835C123.946 409.915 123.478 412.542 123.068 414.717L123.185 410.913C123.867 389.914 125.704 352.215 127.67 345.267C130.238 336.191 128.434 330.635 128.35 317.982C128.292 309.126 131.28 274.097 133.078 253.877L134.401 239.265L142.417 239.076L142.437 241.326C142.578 262.099 141.609 276.358 139.53 284.105Z" fill="white" fill-opacity="0.192499"/>
<path fill-rule="evenodd" clip-rule="evenodd" d="M227.834 157.566C227.834 157.566 226.249 148.828 226.819 147.058C227.306 145.529 231.908 143.323 231.908 143.323C231.908 143.323 239.912 130.818 241.664 132.091C243.089 133.123 237.496 142.343 237.496 142.343C237.496 142.343 242.596 147.636 242.525 150.002C242.454 152.368 234.2 159.774 234.2 159.774L227.834 157.566Z" fill="#F8CFCF"/>
<path fill-rule="evenodd" clip-rule="evenodd" d="M232.08 143.198C232.08 143.198 235.625 142.721 236.189 143.812C236.67 144.742 233.725 147.379 233.725 148.12C233.725 148.861 233.767 154.471 234.004 154.522C234.241 154.573 237.555 145.367 236.848 143.42C236.266 141.821 232.08 143.198 232.08 143.198Z" fill="#F28585"/>
<path fill-rule="evenodd" clip-rule="evenodd" d="M185.546 168.684C176.261 160.662 162.318 175.124 177.865 188.569C183.797 193.699 202.428 206.493 206.996 209.307C214.267 213.785 220.242 209.744 222.697 202.697C224.78 196.723 237.239 164.743 235.653 160.046C234.62 156.982 229.071 154.001 226.286 156.412C222.216 159.935 209.766 190.839 209.766 190.839C209.766 190.839 196.104 177.805 185.546 168.684Z" fill="#877BFF"/>
<path fill-rule="evenodd" clip-rule="evenodd" d="M209.766 190.839C209.766 190.839 213.843 195.786 214.138 195.03C214.432 194.275 210.904 187.918 210.904 187.918L209.766 190.839Z" fill="black" fill-opacity="0.159856"/>
<path d="M225.205 158.393C228.445 156.893 231.984 158.748 233.934 161.723" stroke="#5386BF" stroke-linecap="round"/>
<path fill-rule="evenodd" clip-rule="evenodd" d="M145.742 159.431C145.742 159.431 151.08 158.203 151.266 149.628C151.451 141.053 151.321 138.126 151.321 138.126L163.977 137.918C163.977 137.918 164.104 147.474 164.107 150.931C164.111 158.457 169.812 160.49 169.812 160.49C169.812 160.49 169.339 168.718 158.684 169.306C150.365 169.765 145.742 159.431 145.742 159.431Z" fill="#F8C5C5"/>
<path fill-rule="evenodd" clip-rule="evenodd" d="M175.251 128.881L174.969 136.986C177.36 134.23 178.976 130.814 179.454 126.433L175.251 128.881Z" fill="url(#paint6_linear_6_358)"/>
<path fill-rule="evenodd" clip-rule="evenodd" d="M150.159 133.791C144.914 133.592 145.769 141.12 151.219 141.11C151.219 141.11 157.075 152.654 166.269 152.683C170.697 152.698 172.143 148.831 173.471 146.116C174.799 143.401 175.773 139.34 175.854 136.853C175.941 134.202 175.952 125.493 175.952 125.493L149.955 125.481L150.159 133.791Z" fill="#F8CFCF"/>
<path fill-rule="evenodd" clip-rule="evenodd" d="M175.952 129.489H157.669C157.477 132.728 156.379 135.417 153.593 137.401C153.672 142.146 155.291 145.6 158.099 148.023C160.543 141.155 175.496 143.034 174.408 147.515C172.123 156.929 150.708 157.142 152.007 135.476C151.153 134.334 148.098 134.12 147.092 135.262C145.374 130.529 146.107 123.832 151.075 122.864C147.175 112.777 200.197 110.643 175.952 129.489Z" fill="#424242"/>
<path d="M164.236 147.099C164.236 147.099 166.619 148.815 169.754 146.939" stroke="#CC6969" stroke-linecap="round"/>
<path d="M150.977 138.089C151.03 136.881 150.655 135.922 149.398 135.729" stroke="#DE6767" stroke-linecap="round"/>
<path fill-rule="evenodd" clip-rule="evenodd" d="M148.089 158L163.192 167.796L170.002 159.887C170.002 159.887 184.348 164.327 187.01 169.518C190.85 177.008 185.79 237.022 187.996 240.643C192.697 248.36 186.447 253.658 165.757 255.604C145.067 257.55 126.712 255.957 130.042 245.658C133.374 235.359 120.519 168.147 131.852 164.445C135.393 163.288 148.089 158 148.089 158Z" fill="#7367F0"/>
<path fill-rule="evenodd" clip-rule="evenodd" d="M137.897 176.529C138.812 178.144 138.34 183.737 136.483 193.309C134.9 201.464 136.71 209.899 141.487 216.705L141.756 217.081C143.371 219.311 144.861 222.247 146.224 225.888C149.568 234.82 141.856 242.266 147.766 256.239L147.051 256.205C135.455 255.606 127.79 252.623 130.042 245.658C132.774 237.214 124.624 190.51 127.847 171.921C133.426 173.015 136.776 174.551 137.897 176.529Z" fill="black" fill-opacity="0.159856"/>
<path fill-rule="evenodd" clip-rule="evenodd" d="M148.089 158L161.598 166.795C159.618 169.093 158.556 171.766 158.155 174.709C152.963 170.656 147.567 164.992 145.895 158.902L148.089 158Z" fill="#5E54C7"/>
<path fill-rule="evenodd" clip-rule="evenodd" d="M164.26 166.566C166.544 168.109 168.366 170.839 169.85 173.944C171.628 170.376 172.309 165.664 172.309 160.639L170.078 159.759L164.26 166.566Z" fill="#5E54C7"/>
<path fill-rule="evenodd" clip-rule="evenodd" d="M161.598 166.794L161.774 166.893C162.584 167.344 163.594 167.211 164.259 166.566C169.352 185.207 172.934 205.724 174.017 226.576L168.702 235.39L162.485 227.141C163.295 205.47 163.289 184.339 161.598 166.794Z" fill="#CBC6FF"/>
<path d="M175.081 213.99C175.228 212.598 176.503 211.607 177.888 211.81L190.194 213.609C191.502 213.8 192.427 214.99 192.288 216.304L190.08 237.318C189.933 238.711 188.658 239.701 187.273 239.499L174.967 237.7C173.659 237.509 172.735 236.319 172.873 235.004L175.081 213.99Z" fill="#6182EC"/>
<path fill-rule="evenodd" clip-rule="evenodd" d="M176.549 213.567C176.7 212.128 178.053 211.128 179.473 211.407L192.34 213.93L201.145 213.783C202.624 213.758 203.792 215.033 203.637 216.504L201.432 237.486C201.302 238.724 200.268 239.671 199.023 239.692L189.616 239.849L176.318 237.241C175.066 236.995 174.208 235.834 174.342 234.565L176.549 213.567Z" fill="#96EFFA"/>
<path d="M178.872 218.487C178.97 217.561 179.835 216.913 180.751 217.081L186.657 218.161C187.48 218.312 188.048 219.071 187.96 219.902L187.708 222.297C187.611 223.223 186.746 223.871 185.829 223.703L179.924 222.622C179.101 222.472 178.533 221.713 178.621 220.881L178.872 218.487Z" fill="#74CFDB"/>
<path d="M191.356 214.631C191.402 214.192 191.796 213.873 192.235 213.919L192.752 213.974C193.191 214.02 193.51 214.414 193.464 214.853L190.916 239.097C190.87 239.536 190.476 239.855 190.037 239.809L189.52 239.755C189.08 239.708 188.762 239.315 188.808 238.875L191.356 214.631Z" fill="#EAEFFF"/>
<path d="M192.059 214.705C192.105 214.266 192.499 213.947 192.938 213.993L193.455 214.048C193.895 214.094 194.213 214.488 194.167 214.927L191.619 239.171C191.573 239.61 191.179 239.929 190.74 239.883L190.223 239.828C189.783 239.782 189.465 239.389 189.511 238.949L192.059 214.705Z" fill="#7AD2DD"/>
<path fill-rule="evenodd" clip-rule="evenodd" d="M161.89 223.414C161.89 223.414 166.476 222.498 168.353 221.034C170.23 219.569 175.915 218.534 175.915 218.534L174.096 222.34C174.096 222.34 188.028 221.04 188.358 222.406C188.689 223.772 184.659 225.256 184.659 225.256C184.659 225.256 182.672 228.944 180.748 231.082C178.928 233.105 169.884 232.864 166.714 231.602C163.975 230.511 160.996 231.057 160.996 231.057L161.89 223.414Z" fill="#F8CFCF"/>
<path fill-rule="evenodd" clip-rule="evenodd" d="M125.002 170.239C129.984 159.542 147.042 166.749 142.743 178.209C138.579 189.31 128.49 215.23 128.49 215.23C128.49 215.23 160.462 219.263 162.954 221.144C166.28 223.653 164.224 230.813 161.398 232.088C159.007 233.166 141.245 233.796 123.866 232.435C115.269 231.762 108.911 228.092 108.024 218.559C107.402 211.883 120.202 180.544 125.002 170.239Z" fill="#877BFF"/>
<path fill-rule="evenodd" clip-rule="evenodd" d="M128.502 215.224C128.502 215.224 125.845 220.243 126.604 220.345C127.364 220.448 131.225 215.591 131.225 215.591L128.502 215.224Z" fill="black" fill-opacity="0.159856"/>
<path d="M160.703 220.599C161.689 223.727 160.996 227.395 159.628 229.988" stroke="#5386BF" stroke-linecap="round"/>
<path fill-rule="evenodd" clip-rule="evenodd" d="M25.3628 360.346C33.6288 356.634 43.3365 360.361 46.9957 368.65L49.8583 375.135C41.5924 378.847 31.8847 375.12 28.2255 366.831L25.3628 360.346Z" fill="#02D3AF"/>
<path fill-rule="evenodd" clip-rule="evenodd" d="M37.1732 364.302C45.4226 370.172 50.7719 376.714 53.237 383.926C55.7142 391.173 56.7291 403.321 56.2681 420.347C56.261 420.611 56.4671 420.83 56.7285 420.837C56.9899 420.844 57.2076 420.637 57.2147 420.373C57.6786 403.241 56.6556 390.996 54.1322 383.614C51.5968 376.197 46.1205 369.5 37.7191 363.521C37.5055 363.369 37.21 363.421 37.0593 363.636C36.9085 363.852 36.9595 364.15 37.1732 364.302Z" fill="#02B596"/>
<path fill-rule="evenodd" clip-rule="evenodd" d="M95.4884 356.32C87.3535 352.494 77.659 356.022 73.8864 364.182L70.6725 371.133C78.8074 374.959 88.5019 371.431 92.2745 363.271L95.4884 356.32Z" fill="#02D3AF"/>
<path d="M30.4961 340.385C38.34 338.718 46.0504 343.725 47.7177 351.569L49.0674 357.919C41.2235 359.586 33.5131 354.579 31.8458 346.735L30.4961 340.385Z" fill="#02D3AF"/>
<path fill-rule="evenodd" clip-rule="evenodd" d="M36.2643 345.452C42.3097 349.672 46.3993 354.223 48.5442 359.099L48.676 359.406L48.8088 359.729C51.0069 365.185 54.6455 379.475 59.7048 402.545C59.7613 402.802 60.0141 402.966 60.2696 402.91C60.525 402.854 60.6862 402.599 60.6297 402.342L60.003 399.496L59.2706 396.202C54.6997 375.761 51.4185 363.281 49.41 358.715C47.1875 353.662 42.9812 348.981 36.8019 344.667C36.5865 344.517 36.2916 344.571 36.1431 344.787C35.9947 345.004 36.0489 345.301 36.2643 345.452Z" fill="#02B596"/>
<path fill-rule="evenodd" clip-rule="evenodd" d="M83.6234 335.56C74.9782 335.408 67.8472 342.294 67.6976 350.94L67.5641 358.653C76.2093 358.805 83.3403 351.919 83.49 343.273L83.6234 335.56Z" fill="#02D3AF"/>
<path fill-rule="evenodd" clip-rule="evenodd" d="M77.9508 338.662C72.3897 346.822 68.3264 354.699 65.7625 362.293C63.2031 369.874 60.6503 381.581 58.0999 397.424C58.058 397.684 58.2333 397.93 58.4914 397.972C58.7495 398.014 58.9927 397.837 59.0347 397.577L59.3481 395.651L59.5633 394.353C61.9297 380.186 64.2961 369.6 66.6589 362.601C69.1933 355.095 73.2168 347.295 78.7312 339.203C78.8793 338.985 78.8247 338.688 78.6091 338.539C78.3936 338.389 78.0989 338.444 77.9508 338.662Z" fill="#02B596"/>
<path fill-rule="evenodd" clip-rule="evenodd" d="M65.9047 333.316C65.9047 333.316 61.3949 346.164 59.4015 365.089C57.4081 384.013 58.5712 402.938 58.5712 402.938L60.7718 403.138C60.7718 403.138 59.59 381.05 61.0095 365.172C62.429 349.294 67.005 333.416 67.005 333.416L65.9047 333.316Z" fill="#02B596"/>
<ellipse cx="68.2013" cy="326.952" rx="7.26372" ry="11.1372" transform="rotate(14 68.2013 326.952)" fill="#C2FFF4"/>
<ellipse cx="68.3475" cy="327.625" rx="5.05298" ry="7.26093" transform="rotate(14 68.3475 327.625)" fill="#02D3AF"/>
<path fill-rule="evenodd" clip-rule="evenodd" d="M67.7255 334.005L71.7833 321.341C72.0246 320.588 71.615 319.781 70.8685 319.538C70.122 319.294 69.3213 319.707 69.0801 320.46L65.0223 333.124C64.7811 333.877 65.1907 334.685 65.9371 334.928C66.6836 335.171 67.4843 334.758 67.7255 334.005Z" fill="url(#paint7_linear_6_358)"/>
<path fill-rule="evenodd" clip-rule="evenodd" d="M43.9504 320.586C43.9504 320.586 49.7784 332.892 53.739 351.505C57.6997 370.117 58.5212 389.06 58.5212 389.06L56.3535 389.489C56.3535 389.489 55.22 367.399 52.1486 351.756C49.0772 336.113 42.8665 320.801 42.8665 320.801L43.9504 320.586Z" fill="#02B596"/>
<ellipse cx="7.26372" cy="11.1372" rx="7.26372" ry="11.1372" transform="matrix(-0.939693 0.34202 0.34202 0.939693 44.0176 301.546)" fill="#C2FFF4"/>
<ellipse cx="5.05298" cy="7.26093" rx="5.05298" ry="7.26093" transform="matrix(-0.939693 0.34202 0.34202 0.939693 43.1914 306.63)" fill="#02D3AF"/>
<path fill-rule="evenodd" clip-rule="evenodd" d="M42.2116 321.462L36.8523 309.291C36.5337 308.568 36.8566 307.722 37.5735 307.402C38.2905 307.082 39.13 307.409 39.4486 308.132L44.8079 320.303C45.1265 321.026 44.8036 321.872 44.0866 322.192C43.3697 322.512 42.5302 322.185 42.2116 321.462Z" fill="url(#paint8_linear_6_358)"/>
<path fill-rule="evenodd" clip-rule="evenodd" d="M91.0198 358.348C79.7924 362.742 71.9637 367.819 67.5371 373.599C63.1109 379.378 60.1862 388.341 58.7436 400.49C58.7125 400.752 58.8978 400.99 59.1575 401.021C59.4171 401.053 59.6528 400.866 59.6839 400.604C61.1079 388.611 63.9819 379.803 68.2865 374.183C72.5908 368.563 80.2815 363.575 91.3623 359.239C91.6061 359.143 91.7271 358.867 91.6325 358.621C91.5379 358.375 91.2636 358.253 91.0198 358.348Z" fill="#02B596"/>
<path fill-rule="evenodd" clip-rule="evenodd" d="M60.9297 393.595C55.5988 374.598 34.5469 380.157 34.5469 380.157C34.5469 380.157 50.3084 385.308 58.3465 393.595H60.9297Z" fill="#02B596"/>
<path fill-rule="evenodd" clip-rule="evenodd" d="M60.8751 390.677C66.206 371.68 83.9746 374.458 83.9746 374.458C83.9746 374.458 73.1828 383.329 63.4583 390.677H60.8751Z" fill="#02B596"/>
<path fill-rule="evenodd" clip-rule="evenodd" d="M60.8371 394.453C56.0712 377.599 67.188 363.092 67.188 363.092C67.188 363.092 66.6245 383.052 62.761 393.222L60.8371 394.453Z" fill="#02B596"/>
<path fill-rule="evenodd" clip-rule="evenodd" d="M56.174 390.677C54.0668 384.587 51.9707 376.082 50.4004 367.837C58.1631 370.959 60.6565 383.397 58.1631 390.677H56.174Z" fill="#02D3AF"/>
<path fill-rule="evenodd" clip-rule="evenodd" d="M41.0216 386.762C40.9186 385.584 41.8473 384.571 43.0299 384.571H73.6818C74.8645 384.571 75.7931 385.584 75.6902 386.762L69.7833 454.355C69.6923 455.396 68.8204 456.195 67.775 456.195H48.9368C47.8914 456.195 47.0195 455.396 46.9285 454.355L41.0216 386.762Z" fill="#7569EC"/>
<mask id="mask1_6_358" style="mask-type:luminance" maskUnits="userSpaceOnUse" x="41" y="384" width="35" height="73">
<path fill-rule="evenodd" clip-rule="evenodd" d="M41.0216 386.762C40.9186 385.584 41.8473 384.571 43.0299 384.571H73.6818C74.8645 384.571 75.7931 385.584 75.6902 386.762L69.7833 454.355C69.6923 455.396 68.8204 456.195 67.775 456.195H48.9368C47.8914 456.195 47.0195 455.396 46.9285 454.355L41.0216 386.762Z" fill="white"/>
</mask>
<g mask="url(#mask1_6_358)">
<path fill-rule="evenodd" clip-rule="evenodd" d="M36.4082 380.099H49.3525C41.3311 410.552 65.4785 431.488 49.3525 461.941H36.4082V380.099Z" fill="#8175FF"/>
</g>
<path fill-rule="evenodd" clip-rule="evenodd" d="M618.746 366.882L607.303 457.29L613.302 457.21L624.745 367.728L618.746 366.882Z" fill="#91D6FF"/>
<path fill-rule="evenodd" clip-rule="evenodd" d="M585.447 366.882L574.004 457.29L580.003 457.21L591.446 367.728L585.447 366.882Z" fill="#91D6FF"/>
<path fill-rule="evenodd" clip-rule="evenodd" d="M658.493 366.882L669.936 457.29L663.936 457.21L652.493 367.728L658.493 366.882Z" fill="#BFE7FF"/>
<path fill-rule="evenodd" clip-rule="evenodd" d="M581.07 381.093C575.854 381.093 571.625 376.864 571.625 371.648C571.625 366.431 575.854 362.203 581.07 362.203H618.833C624.554 362.203 629.336 357.849 629.872 352.153L635.91 287.96C636.445 282.264 641.227 277.91 646.949 277.91H670.649C677.108 277.91 682.199 283.408 681.705 289.848L675.48 370.855C675.036 376.632 670.219 381.093 664.425 381.093H581.07Z" fill="#91D6FF"/>
<path fill-rule="evenodd" clip-rule="evenodd" d="M571.627 371.567C571.679 371.568 571.731 371.569 571.783 371.569H654.913C660.706 371.569 665.523 367.109 665.968 361.332L672.188 280.614C672.256 279.734 672.219 278.872 672.089 278.038C671.537 277.954 670.972 277.91 670.395 277.91H646.807C641.086 277.91 636.305 282.262 635.768 287.957L629.735 351.916C629.197 357.611 624.416 361.963 618.696 361.963H581.046C575.843 361.963 571.625 366.181 571.625 371.384C571.625 371.445 571.626 371.506 571.627 371.567Z" fill="#BFE7FF"/>
<path fill-rule="evenodd" clip-rule="evenodd" d="M583.11 428.415C583.11 428.415 588.356 439.01 584.055 442.349C579.748 445.688 568.372 451.946 568.372 451.946L598.512 450.052L591.812 426.944L583.11 428.415Z" fill="url(#paint9_linear_6_358)"/>
<path fill-rule="evenodd" clip-rule="evenodd" d="M595.525 438.003C594.576 438.455 596.136 442.712 592.799 442.413C589.463 442.115 587.368 437.714 584.908 438C582.447 438.285 580.885 442.717 576.2 445.803C571.517 448.89 564.572 452.572 565.037 455.675C565.502 458.779 576.431 459.61 581.968 458.582C587.505 457.556 590.089 455.33 593.681 455.507C597.273 455.685 599.531 455.245 600.657 452.939C601.782 450.632 596.619 437.48 595.525 438.003Z" fill="#EEDFE8"/>
<path fill-rule="evenodd" clip-rule="evenodd" d="M595.258 452.167L594.951 452.149C590.499 451.774 587.445 454.574 583.208 455.363C578.97 456.153 567.795 456.426 566.01 453.775C565.925 453.65 565.847 453.521 565.774 453.391C565.174 454.128 564.892 454.917 565.037 455.836C565.502 458.789 576.432 459.58 581.969 458.603C587.506 457.626 590.091 455.507 593.683 455.676L594.322 455.7C597.545 455.788 599.601 455.294 600.66 453.232C600.917 452.729 600.859 451.649 600.601 450.283C599.098 451.311 597.202 452.226 595.258 452.167Z" fill="#EC7AA5"/>
<path fill-rule="evenodd" clip-rule="evenodd" d="M628.511 335.032C619.387 335.439 568.601 346.672 559.375 348.58C550.148 350.488 542.347 360.814 549.383 372.772C557.285 386.194 577.675 424.314 582.626 432.907C585.076 437.16 597.437 434.775 594.534 427.636C589.121 414.329 586.607 380.898 572.807 368.709C572.807 368.709 619.217 376.786 639.264 367.534C653.833 360.808 650.537 334.047 628.511 335.032Z" fill="#413C75"/>
<path fill-rule="evenodd" clip-rule="evenodd" d="M564.857 278.074C564.857 278.074 564.961 272.65 562.364 268.77C559.766 264.89 559.663 260.768 557.698 260.903C555.732 261.038 557.679 270.618 557.679 270.618C557.679 270.618 555.185 269.665 553.393 268.46C551.602 267.255 546.169 261.314 544.899 262.367C542.747 264.16 546.214 274.279 548.102 276.302C549.997 278.326 559.346 283.98 559.346 283.98L586.881 311.719L590.998 296.993L564.857 278.074Z" fill="url(#paint10_linear_6_358)"/>
<path fill-rule="evenodd" clip-rule="evenodd" d="M619.932 275.625C615.687 285.47 607.915 303.556 604.711 308.951C600.696 315.708 594.365 318.685 586.951 313.672C585.4 312.623 580.946 308.954 580.946 308.954C581.605 302.532 584.004 297.164 588.14 292.849L590.949 295.172C590.949 295.172 598.915 274.752 605.323 262.923C610.872 252.689 626.393 260.659 619.932 275.625Z" fill="#EA5455"/>
<path fill-rule="evenodd" clip-rule="evenodd" d="M590.867 295.183C590.867 295.183 588.728 302.44 588.228 302.019C587.727 301.599 588.61 293.286 588.61 293.286L590.867 295.183Z" fill="black" fill-opacity="0.159856"/>
<path fill-rule="evenodd" clip-rule="evenodd" d="M638.278 237.411V246.123L644.675 240.972C644.675 240.972 646.642 232.626 648.241 226.427C649.244 222.539 651.687 209.384 641.851 210C633.793 195.796 610.327 204.587 610.14 221.94C609.916 242.811 610.099 250.937 610.099 250.937C623.369 251.698 630.837 249.78 638.278 237.411Z" fill="#422851"/>
<path fill-rule="evenodd" clip-rule="evenodd" d="M644.814 253.997C644.814 253.997 638.864 252.6 638.657 242.85C638.451 233.099 638.596 229.77 638.596 229.77L625.488 229.534C625.488 229.534 625.345 240.401 625.343 244.332C625.337 253.889 618.309 254.672 618.309 254.672C618.309 254.672 619.51 262.558 631.388 263.225C640.661 263.748 644.814 253.997 644.814 253.997Z" fill="url(#paint11_linear_6_358)"/>
<path fill-rule="evenodd" clip-rule="evenodd" d="M641.65 224.901C647.498 224.675 646.544 233.235 640.47 233.224C640.47 233.224 636.942 245.384 624.692 245.384C614.744 245.384 614.097 231.211 614.007 228.384C613.91 225.369 613.898 215.465 613.898 215.465L641.878 215.452L641.65 224.901Z" fill="url(#paint12_linear_6_358)"/>
<path fill-rule="evenodd" clip-rule="evenodd" d="M642.103 224.845C639.68 225.245 639.974 226.849 639.315 226.709C635.969 225.997 622.425 226.936 620.681 219.488C618.511 224.141 617.98 225.285 613.202 226.534V212.899L643.424 210C643.424 210 642.955 224.704 642.103 224.845Z" fill="#422851"/>
<path d="M627.055 237.215C627.055 237.215 624.137 239.685 620.758 237.372" stroke="#F77B7B" stroke-width="1.5" stroke-linecap="round"/>
<path d="M625.129 240.076C624.221 240.494 623.347 240.525 622.567 240.107" stroke="#F49494" stroke-linecap="round"/>
<path d="M641.055 229.505C640.995 228.132 641.414 227.041 642.814 226.822" stroke="#F77B7B" stroke-linecap="round"/>
<path fill-rule="evenodd" clip-rule="evenodd" d="M643.484 253C636.016 257.574 627.382 259.251 619.345 254.284C606.23 280.145 602.961 311.002 606.116 345.106C625.241 352.678 641.315 351.189 655 342.534L643.484 253Z" fill="#FFE4F4"/>
<path fill-rule="evenodd" clip-rule="evenodd" d="M550.415 428.84C550.415 428.84 550.573 441.311 540.297 445.974C530.028 450.635 522.711 450.355 523.643 453.959C524.574 457.563 551.304 457.418 553.8 454.599C555.928 452.201 560.554 429.872 561.828 431.579L550.415 428.84Z" fill="url(#paint13_linear_6_358)"/>
<path fill-rule="evenodd" clip-rule="evenodd" d="M557.879 446.452C556.304 445.319 554.98 451.853 550.703 450.036C546.425 448.219 549.798 442.213 547.106 441.105C544.414 439.998 539.216 445.953 532.312 447.401C525.408 448.848 519.803 450.114 518.21 452.801C516.838 455.111 518.21 455.849 518.21 455.849C518.21 455.849 524.856 459.168 528.986 459.899C534.986 460.96 552.325 461.667 554.225 459.732C555.392 458.545 558.667 447.019 557.879 446.452Z" fill="#EEDFE8"/>
<path fill-rule="evenodd" clip-rule="evenodd" d="M517.835 453.073C516.533 455.196 518.587 456.3 518.833 456.422L519.824 456.844C521.704 457.626 525.946 459.302 529.081 459.901C534.829 461 552.628 461.651 554.543 459.762C554.879 459.43 555.295 458.217 555.697 456.641L554.476 456.774C548.598 457.397 535.477 458.524 529.002 456.998C523.254 455.644 520.108 453.417 518.673 452.117C518.324 452.416 518.042 452.734 517.835 453.073Z" fill="#EC7AA5"/>
<path fill-rule="evenodd" clip-rule="evenodd" d="M657.102 331.177C657.102 331.177 670.368 359.192 651.725 368.812C633.696 378.115 579.724 367.112 579.724 367.112C579.724 367.112 580.689 374.877 579.724 381.802C577.206 399.889 565.226 430.023 562.692 433.809C559.187 439.046 548.51 435.097 548.309 430.737C548.107 426.377 556.357 370.693 557.612 360.075C558.86 349.456 562.8 347.913 574.309 345.01C576.953 344.343 608.22 336.573 611.084 336.8C635.695 338.746 657.102 331.177 657.102 331.177Z" fill="#524D87"/>
<path fill-rule="evenodd" clip-rule="evenodd" d="M642.56 365.921C624.711 367.921 577.456 363.798 575.558 365.671C573.746 367.46 574.049 398.575 569.984 416.585L570.602 414.884C574.425 404.267 578.394 391.354 579.724 381.802C580.689 374.877 579.724 367.112 579.724 367.112L581.901 367.533C592.16 369.46 635.86 376.999 651.725 368.812C660.322 364.376 663.83 357.006 662.249 346.703C659.527 358.349 652.964 364.755 642.56 365.921Z" fill="white" fill-opacity="0.056108"/>
<path fill-rule="evenodd" clip-rule="evenodd" d="M643.157 253.021C630.788 293.537 623.371 350.979 661.999 340.986C641.48 303.206 669.375 286.202 663.052 266.676C660.89 260 643.318 252.497 643.157 253.021Z" fill="#EA5455"/>
<path fill-rule="evenodd" clip-rule="evenodd" d="M657.107 269.846C643.128 271.955 654.652 296.362 650.037 300.039C645.423 303.716 637.391 304.113 636.525 306.359C634.785 310.874 643.199 322.271 661.767 340.551L662 340.986C644.125 308.076 662.988 290.931 663.969 274.151C661.898 270.903 659.61 269.468 657.107 269.846Z" fill="black" fill-opacity="0.159856"/>
<path fill-rule="evenodd" clip-rule="evenodd" d="M620 254C615.28 265.838 613.011 275.127 610.894 292.503C609.129 306.975 610.013 336.84 610.013 336.84L604.18 337.987C604.18 337.987 600.01 291.848 601.404 285.907C603.744 275.938 605.329 270.113 608.418 261C610.12 255.998 620 254 620 254Z" fill="#EA5455"/>
<path fill-rule="evenodd" clip-rule="evenodd" d="M640.56 299.017C640.56 299.017 632.944 291.392 630.307 290.507C627.669 289.622 613.222 288.559 613.32 290.559C613.431 292.701 622.727 292.578 623.587 293.632C624.446 294.685 625.642 302.888 628.891 303.697C632.134 304.506 638.857 306.9 638.857 306.9L668.781 322.362L665.593 306.901L640.56 299.017Z" fill="url(#paint14_linear_6_358)"/>
<path fill-rule="evenodd" clip-rule="evenodd" d="M663.48 266.731C672.557 279.542 680.307 299.056 683.282 306.664C686.256 314.272 683.256 325.747 670.175 323.494C668.618 323.226 666.084 322.24 666.084 322.24C661.275 315.647 660.431 309.987 662.226 304.947L663.918 305.661C663.918 305.661 650.917 282.617 647.742 276.439C642.44 266.122 655.485 255.444 663.48 266.731Z" fill="#EA5455"/>
<path fill-rule="evenodd" clip-rule="evenodd" d="M663.917 305.661C663.917 305.661 670.521 308.887 669.69 307.468C668.86 306.049 661.402 301.182 661.402 301.182L663.917 305.661Z" fill="black" fill-opacity="0.159856"/>
<path fill-rule="evenodd" clip-rule="evenodd" d="M525.967 263.044C525.638 261.724 526.441 260.387 527.762 260.058L551.231 254.206C552.552 253.877 553.889 254.68 554.218 256.001L562.74 290.181C563.069 291.501 562.266 292.838 560.946 293.168L537.476 299.019C536.156 299.348 534.818 298.545 534.489 297.225L525.967 263.044Z" fill="url(#paint15_linear_6_358)"/>
<path fill-rule="evenodd" clip-rule="evenodd" d="M526.883 263.595C526.554 262.275 527.358 260.938 528.678 260.608L552.147 254.757C553.468 254.428 554.805 255.231 555.134 256.552L563.656 290.732C563.985 292.052 563.182 293.389 561.862 293.718L538.392 299.57C537.072 299.899 535.734 299.096 535.405 297.775L526.883 263.595Z" fill="#518DF8"/>
<path d="M527.884 263.896C527.588 262.708 528.311 261.504 529.499 261.208L551.571 255.705C552.76 255.408 553.963 256.131 554.26 257.32L561.965 288.223C562.261 289.411 561.538 290.615 560.349 290.911L538.277 296.414C537.089 296.71 535.885 295.987 535.589 294.799L527.884 263.896Z" fill="white"/>
<path fill-rule="evenodd" clip-rule="evenodd" d="M323.203 312.871H334.62V457.751H323.203L323.203 312.871Z" fill="#E9E9E9"/>
<path fill-rule="evenodd" clip-rule="evenodd" d="M211.375 317.634L301.564 317.634V344.542H226.403V457.751H211.375V317.634Z" fill="#D3D3D3"/>
<path fill-rule="evenodd" clip-rule="evenodd" d="M210.791 317.634H218.791V457.751H210.791L210.791 317.634Z" fill="#DBDBDB"/>
<path fill-rule="evenodd" clip-rule="evenodd" d="M603.43 317.634H619.43V457.751H603.43V317.634Z" fill="#E9E9E9"/>
<path fill-rule="evenodd" clip-rule="evenodd" d="M603.43 312.871H613.43V457.751H603.43L603.43 312.871Z" fill="#DBDBDB"/>
<path fill-rule="evenodd" clip-rule="evenodd" d="M471.006 317.634L610.006 317.634V344.19H489.713V457.751H471.006V317.634Z" fill="#D3D3D3"/>
<path fill-rule="evenodd" clip-rule="evenodd" d="M222.59 312.871L471.479 312.871V353.101H222.59L222.59 312.871Z" fill="#DBDBDB"/>
<path fill-rule="evenodd" clip-rule="evenodd" d="M465.771 317.634H477.188V353.101H465.771V317.634Z" fill="#E9E9E9"/>
<path fill-rule="evenodd" clip-rule="evenodd" d="M471.041 317.634H480.041V457.751H471.041V317.634Z" fill="#DBDBDB"/>
<path fill-rule="evenodd" clip-rule="evenodd" d="M472.477 320.015C472.477 316.07 475.675 312.871 479.62 312.871L624.746 312.871C628.691 312.871 631.889 316.07 631.889 320.015C631.889 323.96 628.691 327.158 624.746 327.158H479.62C475.675 327.158 472.477 323.96 472.477 320.015Z" fill="#E9E9E9"/>
<path fill-rule="evenodd" clip-rule="evenodd" d="M219.736 315.729H468.626V330.016H219.736V315.729Z" fill="#E9E9E9"/>
<path fill-rule="evenodd" clip-rule="evenodd" d="M198.805 320.015C198.805 316.07 202.003 312.871 205.948 312.871H482.412C486.358 312.871 489.556 316.07 489.556 320.015C489.556 323.96 486.358 327.158 482.412 327.158H205.948C202.003 327.158 198.805 323.96 198.805 320.015Z" fill="#DBDBDB"/>
<path fill-rule="evenodd" clip-rule="evenodd" d="M243.386 422.181L235.488 447.824L252.055 448.425C252.055 448.425 250.184 439.653 252.855 431.43C254.998 424.829 256.746 421.535 256.746 421.535L243.386 422.181Z" fill="#92691F"/>
<path fill-rule="evenodd" clip-rule="evenodd" d="M251.622 441.378C251.622 441.378 257.945 447.238 264.026 449.409C270.107 451.58 272.435 451.604 272.868 452.421L272.947 452.577C274.198 455.159 273.439 458.589 259.578 458.779C256.209 458.825 252.706 456.868 243.408 454.797L242.736 458.417C237.532 458.348 234.496 457.528 233.627 455.956C232.317 453.605 234.543 442.011 236.079 441.791C237.614 441.571 237.918 446.287 242.041 446.39C246.17 446.493 251.622 441.378 251.622 441.378Z" fill="#391B0B"/>
<path fill-rule="evenodd" clip-rule="evenodd" d="M263.88 449.356C263.692 449.519 263.466 449.691 263.2 449.854C262.275 450.421 260.883 450.872 259.01 450.445C258.059 450.227 256.998 449.619 255.957 448.852C254.91 448.082 253.86 447.137 252.928 446.221C251.994 445.305 251.175 444.416 250.589 443.755C250.296 443.425 250.061 443.152 249.899 442.961C249.874 442.931 249.85 442.903 249.828 442.877C249.966 442.771 250.097 442.668 250.222 442.568C250.24 442.59 250.26 442.613 250.281 442.638C250.44 442.826 250.673 443.096 250.963 443.424C251.544 444.078 252.355 444.959 253.278 445.865C254.201 446.771 255.232 447.699 256.253 448.449C257.279 449.204 258.272 449.763 259.122 449.957C260.852 450.352 262.112 449.935 262.938 449.428C263.087 449.337 263.221 449.243 263.342 449.15C263.522 449.222 263.701 449.291 263.88 449.356Z" fill="#81411E"/>
<path fill-rule="evenodd" clip-rule="evenodd" d="M205.629 341.913C205.629 341.913 271.422 347.174 280.487 347.455C289.552 347.735 296.478 360.674 289.458 372.617C281.574 386.024 260.153 424.621 255.965 433.545C252.423 441.09 236.325 437.998 239.222 426.473C242.681 412.679 249.126 381.733 262.895 369.558C262.895 369.558 229.408 381.699 210.546 369.924C199.785 363.207 205.629 341.913 205.629 341.913Z" fill="#7A3636"/>
<path fill-rule="evenodd" clip-rule="evenodd" d="M289.458 372.617L288.432 374.376C284.442 381.272 277.999 392.923 271.848 404.27L272.171 403.231C276.929 388.092 284.32 370.258 287.48 364.817C288.588 362.91 290.096 360.966 292.004 358.985C292.814 363.14 292.199 367.954 289.458 372.617Z" fill="white" fill-opacity="0.192499"/>
<path fill-rule="evenodd" clip-rule="evenodd" d="M314.987 422.48C314.987 422.48 319.385 442.038 325.11 444.131C327.314 444.937 308.218 447.238 308.218 447.238L303.424 428.474L314.987 422.48Z" fill="#92691F"/>
<path fill-rule="evenodd" clip-rule="evenodd" d="M305.46 440.631L305.141 457.142L311.723 457.192L311.79 453.48C311.79 453.48 316.92 456.556 320.394 457.638C325.066 459.097 343.525 458.333 345.61 456.11C347.696 453.877 347.741 450.324 343.459 449.887C339.178 449.451 332.098 448.151 329.05 445.818C325.363 443.007 323.96 438.547 322.889 438.543C321.25 438.537 321.123 443.784 312.804 443.858C309.637 443.886 305.46 440.631 305.46 440.631Z" fill="#391B0B"/>
<path fill-rule="evenodd" clip-rule="evenodd" d="M321.186 440.015C321.186 440.015 325.431 446.639 327.954 447.598C330.478 448.547 332.512 447.482 332.512 447.482C332.512 447.482 328.16 445.748 326.479 442.722C322.672 435.867 321.91 439.354 321.186 440.015Z" fill="#81411E"/>
<path fill-rule="evenodd" clip-rule="evenodd" d="M211.075 347.228C211.075 347.228 210.983 368.248 225.106 373.532C239.23 378.815 285.22 376.827 285.22 376.827C285.22 376.827 299.814 430.525 303.311 435.755C306.808 440.986 323.39 441.527 322.493 429.481C321.59 417.435 315.119 372.713 313.867 362.107C312.622 351.5 308.69 348.96 297.208 347.06C293.172 346.392 294.885 345.322 268.941 344.107C263.369 343.846 254.02 345.932 245.429 346.877C236.837 347.822 211.075 347.228 211.075 347.228Z" fill="#7A3636"/>
<path fill-rule="evenodd" clip-rule="evenodd" d="M256.977 347.681L256.977 345.24L258.127 345.068C262.309 344.447 266.111 343.975 268.94 344.107L271.923 344.252C294.756 345.407 293.333 346.419 297.207 347.06L297.953 347.186C308.616 349.033 312.474 351.614 313.78 361.419L314.146 364.37C315.874 377.962 321.644 418.158 322.493 429.481C322.56 430.387 322.529 431.222 322.411 431.99L319.05 415.062C314.096 389.966 311.32 375.096 310.722 370.452L310.597 369.487C309.478 361.244 306.55 351.016 297.101 351.683L296.285 351.752C289.632 352.258 277.016 350.982 258.436 347.923L256.977 347.681Z" fill="white" fill-opacity="0.192499"/>
<ellipse cx="324.32" cy="363.912" rx="3.77561" ry="6.61391" transform="rotate(13 324.32 363.912)" fill="white" fill-opacity="0.192499"/>
<path fill-rule="evenodd" clip-rule="evenodd" d="M221.263 319.315C221.263 319.315 236.654 322.878 236.498 324.277C236.345 325.682 229.569 325.898 229.569 325.898C229.569 325.898 242.095 333.987 241.098 335.565C240.101 337.143 231.934 338.921 228.545 337.648C225.154 336.375 216.367 327.113 216.367 327.113L221.263 319.315Z" fill="url(#paint16_linear_6_358)"/>
<path fill-rule="evenodd" clip-rule="evenodd" d="M221.402 273.716C216.247 280.079 198.669 299.513 198.669 299.513C198.669 299.513 216.247 312.033 220.673 314.681C227.931 319.021 220.55 330.537 215.227 329.258C208.014 327.52 189.806 314.959 181.25 309.875C172.695 304.792 175.968 296.585 182.298 289.095C187.161 283.343 197.731 271.557 205.168 261.211C212.568 250.917 231.406 261.37 221.402 273.716Z" fill="#EA5455"/>
<path fill-rule="evenodd" clip-rule="evenodd" d="M198.67 299.513C198.67 299.513 193.721 304.281 194.235 304.65C194.75 305.019 200.713 300.979 200.713 300.979L198.67 299.513Z" fill="black" fill-opacity="0.159856"/>
<path fill-rule="evenodd" clip-rule="evenodd" d="M252.093 227.007C256.416 227.481 256.109 235.089 250.847 235.486C249.771 242.821 245.936 246.315 241.259 246.719L241.518 257.813L220.833 257.801C220.833 257.801 226.658 249.964 226.368 239.235C226.077 228.506 226.562 218.427 226.562 218.427L253.355 218.908L252.093 227.007Z" fill="url(#paint17_linear_6_358)"/>
<path fill-rule="evenodd" clip-rule="evenodd" d="M243.63 206.313C259.567 210.336 252.992 227.328 252.992 227.328C248.177 226.671 243.543 232.514 241.786 238.244C236.705 243.467 230.124 243.458 225.748 240.416C225.748 240.416 219.727 221.793 221.696 215.592C223.666 209.391 229.104 202.647 243.63 206.313Z" fill="#2C272E"/>
<path fill-rule="evenodd" clip-rule="evenodd" d="M205.957 260.288C204.526 262.724 203.501 272.536 205.957 311.408C207.229 331.537 201.819 351.376 203.217 360.109C204.615 368.843 214.223 369.886 214.223 369.886L219.826 351.657L222.462 369.886C222.462 369.886 262.196 366.171 265.678 357.125C269.167 348.06 264.785 326.75 263.743 306.683C262.697 286.537 263.482 265.858 261.556 262.724C257.713 256.468 247.821 253.546 241.682 252.61C233.891 251.422 223.833 251.377 217.854 253.273C211.875 255.168 207.388 257.852 205.957 260.288Z" fill="#EA5455"/>
<path fill-rule="evenodd" clip-rule="evenodd" d="M246.387 274.131C249.523 297.265 253.716 313.498 258.966 322.83C261.137 326.688 263.342 328.279 265.582 327.602L265.05 322.475C264.52 317.287 264.017 311.942 263.744 306.683C263.553 303.016 263.424 299.331 263.327 295.737L246.387 274.131Z" fill="black" fill-opacity="0.159856"/>
<path fill-rule="evenodd" clip-rule="evenodd" d="M217.854 253.273C217.492 253.388 217.141 253.507 216.802 253.631C225.387 257.374 239.562 256.874 247.268 253.825C245.26 253.258 243.335 252.862 241.682 252.61C233.891 251.422 223.834 251.377 217.854 253.273Z" fill="#E5AA41"/>
<path fill-rule="evenodd" clip-rule="evenodd" d="M323.153 294.168C323.153 294.168 335.938 285.633 338.197 283.919C340.449 282.212 343.276 269.268 341.524 267.452C340.678 266.573 334.282 272.486 333.141 273.278C332.007 274.062 326.208 277.556 326.208 277.556C326.208 277.556 327.849 267.648 326.436 266.849C325.391 266.268 323.3 268.818 323.021 271.513C322.741 274.208 319.834 277.723 319.459 281.813C319.289 283.599 317.53 287.013 317.53 287.013L323.153 294.168Z" fill="url(#paint18_linear_6_358)"/>
<path fill-rule="evenodd" clip-rule="evenodd" d="M247.013 277.801C251.912 287.981 260.232 302.863 264.802 311.589C270.21 321.915 276.654 326.29 289.651 318.628C300.536 312.211 316.232 301.89 324.342 296.281C331.889 291.061 322.968 278.175 315.838 282.529C306.38 288.297 282.192 299.728 282.192 299.728C282.192 299.728 269.745 276.991 264.577 266.075C258.003 252.201 237.532 258.101 247.013 277.801Z" fill="#EA5455"/>
<path fill-rule="evenodd" clip-rule="evenodd" d="M282.193 299.728C282.193 299.728 284.469 307.744 285.006 307.427C285.543 307.111 284.629 298.579 284.629 298.579L282.193 299.728Z" fill="black" fill-opacity="0.159856"/>
<path fill-rule="evenodd" clip-rule="evenodd" d="M231.767 378.221L220.324 459.179L226.324 459.1L237.767 379.067L231.767 378.221Z" fill="#BFE7FF"/>
<path fill-rule="evenodd" clip-rule="evenodd" d="M269.928 378.221L281.371 459.179L275.372 459.1L263.929 379.067L269.928 378.221Z" fill="#91D6FF"/>
<path fill-rule="evenodd" clip-rule="evenodd" d="M196.882 378.221L185.439 459.179L191.439 459.1L202.882 379.067L196.882 378.221Z" fill="#BFE7FF"/>
<path fill-rule="evenodd" clip-rule="evenodd" d="M274.305 382.983C279.521 382.983 283.75 378.754 283.75 373.538C283.75 368.321 279.521 364.092 274.305 364.092H236.542C230.821 364.092 226.039 359.739 225.503 354.043L219.465 289.85C218.93 284.153 214.148 279.8 208.426 279.8H184.726C178.267 279.8 173.176 285.298 173.67 291.737L179.895 372.744C180.339 378.522 185.156 382.983 190.95 382.983H274.305Z" fill="#BFE7FF"/>
<path fill-rule="evenodd" clip-rule="evenodd" d="M283.748 373.457C283.696 373.458 283.644 373.458 283.592 373.458H231.609C225.816 373.458 220.999 368.998 220.554 363.222L214.246 281.363C217.19 283.121 219.264 286.21 219.607 289.847L225.64 353.806C226.178 359.501 230.959 363.853 236.679 363.853H274.329C279.532 363.853 283.75 368.071 283.75 373.274C283.75 373.335 283.749 373.396 283.748 373.457Z" fill="#91D6FF"/>
<path fill-rule="evenodd" clip-rule="evenodd" d="M497.98 311.543C497.98 311.13 497.646 310.796 497.234 310.796H413.098C412.685 310.796 412.351 311.13 412.351 311.543V312.64C412.351 313.052 412.685 313.386 413.098 313.386H497.234C497.646 313.386 497.98 313.052 497.98 312.64V311.543Z" fill="url(#paint19_linear_6_358)"/>
<path fill-rule="evenodd" clip-rule="evenodd" d="M497.988 311.543C497.988 311.13 497.654 310.796 497.242 310.796H464.915C464.503 310.796 464.168 311.13 464.168 311.543V312.64C464.168 313.052 464.503 313.386 464.915 313.386H497.242C497.654 313.386 497.988 313.052 497.988 312.64V311.543Z" fill="#518DF8"/>
<path fill-rule="evenodd" clip-rule="evenodd" d="M504.092 275.353C504.367 273.201 502.691 271.296 500.521 271.296H444.71C442.898 271.296 441.369 272.642 441.139 274.439L436.988 306.852C436.712 309.004 438.389 310.909 440.559 310.909H496.37C498.181 310.909 499.711 309.563 499.941 307.766L504.092 275.353Z" fill="#518DF8"/>
<path fill-rule="evenodd" clip-rule="evenodd" d="M502.393 275.353C502.668 273.201 500.991 271.296 498.822 271.296H444.19C442.379 271.296 440.849 272.642 440.619 274.439L436.468 306.852C436.193 309.004 437.869 310.909 440.039 310.909H494.671C496.482 310.909 498.011 309.563 498.242 307.766L502.393 275.353Z" fill="url(#paint20_linear_6_358)"/>
<path d="M500.443 276.821C500.691 274.884 499.182 273.17 497.229 273.17H445.471C443.84 273.17 442.464 274.381 442.257 275.999L438.517 305.236C438.269 307.173 439.778 308.887 441.731 308.887H493.489C495.12 308.887 496.496 307.675 496.703 306.058L500.443 276.821Z" fill="white"/>
<path fill-rule="evenodd" clip-rule="evenodd" d="M363.644 321.22C363.644 321.22 377.245 324.393 377.107 325.638C376.972 326.89 370.984 327.082 370.984 327.082C370.984 327.082 382.053 334.285 381.172 335.69C380.291 337.095 373.074 338.678 370.079 337.545C367.082 336.412 359.317 328.164 359.317 328.164L337.53 316.463L344.812 306.858L363.644 321.22Z" fill="url(#paint21_linear_6_358)"/>
<path fill-rule="evenodd" clip-rule="evenodd" d="M363.766 280.617C359.21 286.282 343.677 303.588 343.677 303.588L346.743 305.889L336.771 317.985C336.771 317.985 330.403 314.083 328.284 312.815C320.723 308.288 323.616 300.98 329.21 294.311C333.507 289.189 342.848 278.695 349.42 269.482C355.96 260.316 372.607 269.624 363.766 280.617Z" fill="#FFB66F"/>
<path fill-rule="evenodd" clip-rule="evenodd" d="M343.677 303.588C343.677 303.588 339.304 307.833 339.758 308.162C340.213 308.491 345.482 304.893 345.482 304.893L343.677 303.588Z" fill="black" fill-opacity="0.159856"/>
<path fill-rule="evenodd" clip-rule="evenodd" d="M346.125 304.623L333.127 317.491L339.626 321.744L348.555 306.459L346.125 304.623Z" fill="#FFEDC2"/>
<path fill-rule="evenodd" clip-rule="evenodd" d="M387.635 420.233L380.604 442.882L392.422 443.413C392.422 443.413 390.756 435.665 393.134 428.403C395.041 422.572 396.598 419.663 396.598 419.663L387.635 420.233Z" fill="url(#paint22_linear_6_358)"/>
<path fill-rule="evenodd" clip-rule="evenodd" d="M392.518 436.78C392.518 436.78 392.271 442.547 394.285 444.369C396.298 446.19 406.978 452.917 407.873 454.272C408.768 455.628 407.455 457.283 407.455 457.283C407.455 457.283 396.551 458.993 391.407 456.354C387.694 454.448 385.041 452.891 385.041 452.891L383.901 455.82L377.947 454.965C377.947 454.965 376.112 450.316 376.9 448.004C377.689 445.692 381.758 434.889 381.758 434.889C381.758 434.889 392.518 436.78 392.518 436.78Z" fill="#391B0B"/>
<path fill-rule="evenodd" clip-rule="evenodd" d="M353.247 343.031C362.136 343.898 405.92 354.326 414.935 356.178C423.95 358.03 431.572 368.051 424.698 379.654C416.976 392.679 395.149 433.158 395.149 433.158C395.014 433.191 394.882 433.249 394.746 433.249C390.306 433.249 386.348 432.641 382.537 429.985C382.537 429.985 388.328 387.54 401.811 375.712C401.811 375.712 366.993 388.231 349.581 374.571C339.309 366.513 343.451 342.075 353.247 343.031Z" fill="#33373E"/>
<path fill-rule="evenodd" clip-rule="evenodd" d="M421.573 359.255L419.182 389.278C419.379 388.928 419.573 388.582 419.766 388.24L422.044 359.636C421.889 359.506 421.732 359.379 421.573 359.255Z" fill="white" fill-opacity="0.192499"/>
<path fill-rule="evenodd" clip-rule="evenodd" d="M453.095 418.444C453.095 418.444 456.972 435.714 462.017 437.562C463.96 438.273 450.031 440.305 450.031 440.305L445.806 423.737L453.095 418.444Z" fill="url(#paint23_linear_6_358)"/>
<path fill-rule="evenodd" clip-rule="evenodd" d="M448.255 435.544L451.933 457.165L458.309 456.157L457.522 450.811C457.522 450.811 460.318 455.468 463.437 455.267C466.565 455.065 482.207 452.707 482.207 452.707C482.207 452.707 482.559 447.529 475.364 446.346C469.379 445.363 459.174 433.809 459.174 433.809L448.255 435.544Z" fill="#391B0B"/>
<path fill-rule="evenodd" clip-rule="evenodd" d="M360.704 340.171C360.704 340.171 347.872 367.35 365.905 376.682C383.344 385.708 429.748 374.063 429.748 374.063C429.748 374.063 428.815 381.596 429.748 388.314C432.184 405.861 444.166 427.449 445.256 431.007C445.805 432.798 459.169 430.151 459.169 428.026C459.169 425.901 452.351 377.537 451.137 367.236C449.93 356.934 446.118 355.438 434.986 352.622C432.428 351.975 399.282 344.436 396.511 344.656C372.705 346.544 360.704 340.171 360.704 340.171Z" fill="#42474F"/>
<path fill-rule="evenodd" clip-rule="evenodd" d="M396.511 344.656C399.282 344.436 432.428 351.975 434.986 352.622L436.814 353.091C446.309 355.575 449.828 357.428 451.051 366.547L451.38 369.165C452.382 376.804 455.09 394.769 457.233 409.725C454.815 404.228 452.814 398.129 451.23 391.427C447.538 375.808 448.328 362.982 447.337 360.736C446.345 358.49 397.857 351.32 389.526 349.84C385.899 349.196 383.854 347.599 383.389 345.048C387.415 345.161 391.789 345.031 396.511 344.656Z" fill="white" fill-opacity="0.192499"/>
<path fill-rule="evenodd" clip-rule="evenodd" d="M390.202 235.877C394.054 236.299 393.781 243.08 389.092 243.434C388.134 249.97 384.716 253.084 380.549 253.444L380.78 263.331L362.347 263.32C362.347 263.32 367.538 256.336 367.279 246.775C367.02 237.213 367.453 228.231 367.453 228.231L391.327 228.66L390.202 235.877Z" fill="url(#paint24_linear_6_358)"/>
<path fill-rule="evenodd" clip-rule="evenodd" d="M391.04 236.385C386.553 234.609 383.239 242.257 379.806 247.573C376.373 252.889 367.48 251.985 366.254 247.573C361.613 237.908 357.614 224.769 363.029 223.691C363.792 209.723 400.306 213.021 391.04 236.385Z" fill="#9E5229"/>
<path fill-rule="evenodd" clip-rule="evenodd" d="M366.016 218.156H373.929H374.04L374.115 218.239C381.144 226.095 382.718 237.664 379.433 248.099C379.179 248.427 378.903 248.727 378.608 249.001C382.286 238.471 380.877 226.618 373.817 218.656H365.428C365.615 218.483 365.811 218.316 366.016 218.156Z" fill="black" fill-opacity="0.199355"/>
<ellipse cx="4.4008" cy="4.40615" rx="4.4008" ry="4.40615" transform="matrix(-1 0 0 1 375.268 214)" fill="#FB9934"/>
<path fill-rule="evenodd" clip-rule="evenodd" d="M394.708 265.001C398.788 270.987 405.589 291.303 405.975 295.873C406.409 301.145 400.749 309.544 400.656 317.176C400.574 324.809 404.878 343.915 403.585 346.062C402.302 348.209 359.688 360.621 357.288 359.601C354.887 358.581 346.6 347.581 348.494 343.11C350.398 338.64 358.264 328.499 357.363 322.408C356.474 316.318 351.306 293.836 348.74 286.184C346.184 278.532 347.036 270.499 351.806 267.206C354.167 265.577 360.465 260.948 371.681 260.97C382.897 260.991 394.391 264.537 394.708 265.001Z" fill="#FF9F43"/>
<path fill-rule="evenodd" clip-rule="evenodd" d="M403.855 290.966L384.3 276.915L384.306 279.483C384.378 295.33 385.376 303.724 401.973 329.695L401.589 327.048C401.048 323.206 400.629 319.608 400.656 317.176C400.714 312.361 402.989 307.241 404.551 302.793L403.855 290.966Z" fill="black" fill-opacity="0.159856"/>
<path fill-rule="evenodd" clip-rule="evenodd" d="M382.043 260.532C382.043 260.532 382.515 263.106 380.449 263.106C378.382 263.106 364.522 263.562 362.646 262.748C360.769 261.934 361.332 260.532 361.332 260.532H382.043Z" fill="#FFF6E1"/>
<path fill-rule="evenodd" clip-rule="evenodd" d="M451.124 295.861C451.124 295.861 462.41 288.328 464.405 286.815C466.393 285.309 468.888 273.885 467.342 272.283C466.595 271.507 460.948 276.725 459.941 277.424C458.941 278.116 453.82 281.2 453.82 281.2C453.82 281.2 455.269 272.456 454.022 271.751C453.099 271.238 451.254 273.488 451.007 275.866C450.76 278.244 448.194 281.347 447.862 284.956C447.713 286.533 447.129 288.577 447.129 288.577L415.813 302.025L419.09 316.648L451.124 295.861Z" fill="url(#paint25_linear_6_358)"/>
<path fill-rule="evenodd" clip-rule="evenodd" d="M383.906 281.416C388.231 290.4 395.576 303.534 399.61 311.235C404.384 320.349 410.073 324.21 421.547 317.448C422.89 316.656 425.795 314.892 425.795 314.892L418.691 299.12L414.963 300.768C414.963 300.768 403.974 280.701 399.412 271.067C393.608 258.822 375.536 264.03 383.906 281.416Z" fill="#FFB66F"/>
<path fill-rule="evenodd" clip-rule="evenodd" d="M414.964 300.768C414.964 300.768 416.973 307.842 417.448 307.563C417.922 307.283 417.115 299.753 417.115 299.753L414.964 300.768Z" fill="black" fill-opacity="0.159856"/>
<path fill-rule="evenodd" clip-rule="evenodd" d="M418.591 298.423L423.539 318.058L430.9 314.077L421.24 296.894L418.591 298.423Z" fill="#FFEDC2"/>
<path fill-rule="evenodd" clip-rule="evenodd" d="M371.338 215.15C371.338 215.15 367.189 209.84 362.399 211.233C357.608 212.626 353.275 221.165 355.332 229.191C357.379 237.219 355.691 241.797 353.208 247.207C346.536 261.76 369.634 271 369.634 271C369.634 271 367.832 260.217 371.338 253.705C374.948 246.999 376.998 238.399 376.998 233.137C376.998 223.986 371.338 215.15 371.338 215.15Z" fill="#9E5229"/>
<path fill-rule="evenodd" clip-rule="evenodd" d="M370.657 378.221L382.1 459.179L376.1 459.1L364.657 379.067L370.657 378.221Z" fill="#91D6FF"/>
<path fill-rule="evenodd" clip-rule="evenodd" d="M403.955 378.221L415.398 459.179L409.399 459.1L397.956 379.067L403.955 378.221Z" fill="#91D6FF"/>
<path fill-rule="evenodd" clip-rule="evenodd" d="M330.91 378.221L319.467 459.179L325.466 459.1L336.909 379.067L330.91 378.221Z" fill="#BFE7FF"/>
<path fill-rule="evenodd" clip-rule="evenodd" d="M408.332 382.983C413.549 382.983 417.777 378.754 417.777 373.538C417.777 368.321 413.549 364.092 408.332 364.092H370.57C364.848 364.092 360.066 359.739 359.531 354.043L353.493 289.85C352.957 284.153 348.175 279.8 342.453 279.8H318.753C312.295 279.8 307.203 285.298 307.698 291.737L313.922 372.744C314.366 378.522 319.183 382.983 324.978 382.983H408.332Z" fill="#BFE7FF"/>
<path fill-rule="evenodd" clip-rule="evenodd" d="M417.776 373.457C417.724 373.458 417.672 373.458 417.619 373.458H365.636C359.843 373.458 355.026 368.998 354.581 363.222L348.274 281.363C351.218 283.121 353.292 286.21 353.635 289.847L359.668 353.806C360.205 359.501 364.986 363.853 370.707 363.853H408.357C413.56 363.853 417.777 368.071 417.777 373.274C417.777 373.335 417.777 373.396 417.776 373.457Z" fill="#91D6FF"/>
<defs>
<filter id="filter0_dd_6_358" x="9.85547" y="0.00817871" width="191.801" height="107.428" filterUnits="userSpaceOnUse" color-interpolation-filters="sRGB">
<feFlood flood-opacity="0" result="BackgroundImageFix"/>
<feColorMatrix in="SourceAlpha" type="matrix" values="0 0 0 0 0 0 0 0 0 0 0 0 0 0 0 0 0 0 127 0" result="hardAlpha"/>
<feOffset dx="8" dy="9"/>
<feGaussianBlur stdDeviation="14"/>
<feColorMatrix type="matrix" values="0 0 0 0 0.0755213 0 0 0 0 0.582569 0 0 0 0 0.878793 0 0 0 0.229458 0"/>
<feBlend mode="normal" in2="BackgroundImageFix" result="effect1_dropShadow_6_358"/>
<feColorMatrix in="SourceAlpha" type="matrix" values="0 0 0 0 0 0 0 0 0 0 0 0 0 0 0 0 0 0 127 0" result="hardAlpha"/>
<feOffset dy="2"/>
<feGaussianBlur stdDeviation="7.5"/>
<feColorMatrix type="matrix" values="0 0 0 0 0.503982 0 0 0 0 0.700178 0 0 0 0 1 0 0 0 0.233829 0"/>
<feBlend mode="normal" in2="effect1_dropShadow_6_358" result="effect2_dropShadow_6_358"/>
<feBlend mode="normal" in="SourceGraphic" in2="effect2_dropShadow_6_358" result="shape"/>
</filter>
<filter id="filter1_dd_6_358" x="9.85547" y="58.5918" width="224.949" height="198.68" filterUnits="userSpaceOnUse" color-interpolation-filters="sRGB">
<feFlood flood-opacity="0" result="BackgroundImageFix"/>
<feColorMatrix in="SourceAlpha" type="matrix" values="0 0 0 0 0 0 0 0 0 0 0 0 0 0 0 0 0 0 127 0" result="hardAlpha"/>
<feOffset dx="8" dy="9"/>
<feGaussianBlur stdDeviation="14"/>
<feColorMatrix type="matrix" values="0 0 0 0 0.0755213 0 0 0 0 0.582569 0 0 0 0 0.878793 0 0 0 0.229458 0"/>
<feBlend mode="normal" in2="BackgroundImageFix" result="effect1_dropShadow_6_358"/>
<feColorMatrix in="SourceAlpha" type="matrix" values="0 0 0 0 0 0 0 0 0 0 0 0 0 0 0 0 0 0 127 0" result="hardAlpha"/>
<feOffset dy="2"/>
<feGaussianBlur stdDeviation="7.5"/>
<feColorMatrix type="matrix" values="0 0 0 0 0.503982 0 0 0 0 0.700178 0 0 0 0 1 0 0 0 0.233829 0"/>
<feBlend mode="normal" in2="effect1_dropShadow_6_358" result="effect2_dropShadow_6_358"/>
<feBlend mode="normal" in="SourceGraphic" in2="effect2_dropShadow_6_358" result="shape"/>
</filter>
<filter id="filter2_d_6_358" x="35.5059" y="119.89" width="161.424" height="97.3127" filterUnits="userSpaceOnUse" color-interpolation-filters="sRGB">
<feFlood flood-opacity="0" result="BackgroundImageFix"/>
<feColorMatrix in="SourceAlpha" type="matrix" values="0 0 0 0 0 0 0 0 0 0 0 0 0 0 0 0 0 0 127 0" result="hardAlpha"/>
<feOffset dy="13"/>
<feGaussianBlur stdDeviation="7.5"/>
<feColorMatrix type="matrix" values="0 0 0 0 0 0 0 0 0 0 0 0 0 0 0 0 0 0 0.144395 0"/>
<feBlend mode="normal" in2="BackgroundImageFix" result="effect1_dropShadow_6_358"/>
<feBlend mode="normal" in="SourceGraphic" in2="effect1_dropShadow_6_358" result="shape"/>
</filter>
<filter id="filter3_d_6_358" x="215.232" y="22.2367" width="272.182" height="197.485" filterUnits="userSpaceOnUse" color-interpolation-filters="sRGB">
<feFlood flood-opacity="0" result="BackgroundImageFix"/>
<feColorMatrix in="SourceAlpha" type="matrix" values="0 0 0 0 0 0 0 0 0 0 0 0 0 0 0 0 0 0 127 0" result="hardAlpha"/>
<feOffset dx="6" dy="6"/>
<feGaussianBlur stdDeviation="8"/>
<feColorMatrix type="matrix" values="0 0 0 0 0.70188 0 0 0 0 0.70188 0 0 0 0 0.70188 0 0 0 0.208725 0"/>
<feBlend mode="normal" in2="BackgroundImageFix" result="effect1_dropShadow_6_358"/>
<feBlend mode="normal" in="SourceGraphic" in2="effect1_dropShadow_6_358" result="shape"/>
</filter>
<linearGradient id="paint0_linear_6_358" x1="493.831" y1="228.939" x2="482.751" y2="278.416" gradientUnits="userSpaceOnUse">
<stop stop-color="#FFAFAF"/>
<stop offset="1" stop-color="#F07777"/>
</linearGradient>
<linearGradient id="paint1_linear_6_358" x1="492.971" y1="219.545" x2="486.323" y2="252.064" gradientUnits="userSpaceOnUse">
<stop stop-color="#FDC6C6"/>
<stop offset="1" stop-color="#FAB2B2"/>
</linearGradient>
<linearGradient id="paint2_linear_6_358" x1="445.96" y1="422.352" x2="444.367" y2="452.133" gradientUnits="userSpaceOnUse">
<stop stop-color="#FDC6C6"/>
<stop offset="1" stop-color="#FAB2B2"/>
</linearGradient>
<linearGradient id="paint3_linear_6_358" x1="414.89" y1="460.704" x2="366.815" y2="368.427" gradientUnits="userSpaceOnUse">
<stop stop-color="#28324F"/>
<stop offset="1" stop-color="#222735"/>
</linearGradient>
<linearGradient id="paint4_linear_6_358" x1="409.77" y1="257.915" x2="407.618" y2="286.518" gradientUnits="userSpaceOnUse">
<stop stop-color="#FDC6C6"/>
<stop offset="1" stop-color="#FAB2B2"/>
</linearGradient>
<linearGradient id="paint5_linear_6_358" x1="488.733" y1="287.46" x2="488.102" y2="305.93" gradientUnits="userSpaceOnUse">
<stop stop-color="#FDC6C6"/>
<stop offset="1" stop-color="#FAB2B2"/>
</linearGradient>
<linearGradient id="paint6_linear_6_358" x1="181.336" y1="119.269" x2="171.447" y2="120.194" gradientUnits="userSpaceOnUse">
<stop stop-color="#4D63A0"/>
<stop offset="1" stop-color="#222735"/>
</linearGradient>
<linearGradient id="paint7_linear_6_358" x1="66.0113" y1="318.433" x2="66.0113" y2="334.998" gradientUnits="userSpaceOnUse">
<stop stop-color="#FE62BE"/>
<stop offset="1" stop-color="#FDB3A8"/>
</linearGradient>
<linearGradient id="paint8_linear_6_358" x1="42.2886" y1="305.795" x2="44.0202" y2="322.27" gradientUnits="userSpaceOnUse">
<stop stop-color="#FE62BE"/>
<stop offset="1" stop-color="#FDB3A8"/>
</linearGradient>
<linearGradient id="paint9_linear_6_358" x1="603.727" y1="420.858" x2="602.131" y2="450.708" gradientUnits="userSpaceOnUse">
<stop stop-color="#FDC6C6"/>
<stop offset="1" stop-color="#FAB2B2"/>
</linearGradient>
<linearGradient id="paint10_linear_6_358" x1="599.093" y1="248.529" x2="594.853" y2="309.079" gradientUnits="userSpaceOnUse">
<stop stop-color="#FDC6C6"/>
<stop offset="1" stop-color="#FAB2B2"/>
</linearGradient>
<linearGradient id="paint11_linear_6_358" x1="653.443" y1="224.528" x2="642.218" y2="274.065" gradientUnits="userSpaceOnUse">
<stop stop-color="#FFAFAF"/>
<stop offset="1" stop-color="#F07777"/>
</linearGradient>
<linearGradient id="paint12_linear_6_358" x1="652.685" y1="215.112" x2="646.025" y2="247.709" gradientUnits="userSpaceOnUse">
<stop stop-color="#FDC6C6"/>
<stop offset="1" stop-color="#FAB2B2"/>
</linearGradient>
<linearGradient id="paint13_linear_6_358" x1="568.45" y1="422.061" x2="566.889" y2="455.334" gradientUnits="userSpaceOnUse">
<stop stop-color="#FDC6C6"/>
<stop offset="1" stop-color="#FAB2B2"/>
</linearGradient>
<linearGradient id="paint14_linear_6_358" x1="678.378" y1="281.401" x2="676.871" y2="320.785" gradientUnits="userSpaceOnUse">
<stop stop-color="#FDC6C6"/>
<stop offset="1" stop-color="#FAB2B2"/>
</linearGradient>
<linearGradient id="paint15_linear_6_358" x1="525.221" y1="251.275" x2="537.146" y2="299.102" gradientUnits="userSpaceOnUse">
<stop stop-color="#9FF6EC"/>
<stop offset="1" stop-color="#7D9DFF"/>
</linearGradient>
<linearGradient id="paint16_linear_6_358" x1="230.949" y1="307.304" x2="242.7" y2="333.424" gradientUnits="userSpaceOnUse">
<stop stop-color="#FDC6C6"/>
<stop offset="1" stop-color="#A47070"/>
</linearGradient>
<linearGradient id="paint17_linear_6_358" x1="261.015" y1="208.839" x2="257.539" y2="255.739" gradientUnits="userSpaceOnUse">
<stop stop-color="#FDC6C6"/>
<stop offset="1" stop-color="#A47070"/>
</linearGradient>
<linearGradient id="paint18_linear_6_358" x1="346.317" y1="260.095" x2="343.967" y2="292.735" gradientUnits="userSpaceOnUse">
<stop stop-color="#FDC6C6"/>
<stop offset="1" stop-color="#A47070"/>
</linearGradient>
<linearGradient id="paint19_linear_6_358" x1="491.736" y1="310.207" x2="491.736" y2="313.386" gradientUnits="userSpaceOnUse">
<stop stop-color="#9FF6EC"/>
<stop offset="1" stop-color="#7D9DFF"/>
</linearGradient>
<linearGradient id="paint20_linear_6_358" x1="498.029" y1="262.282" x2="498.029" y2="310.909" gradientUnits="userSpaceOnUse">
<stop stop-color="#9FF6EC"/>
<stop offset="1" stop-color="#7D9DFF"/>
</linearGradient>
<linearGradient id="paint21_linear_6_358" x1="361.208" y1="285.874" x2="381.753" y2="332.819" gradientUnits="userSpaceOnUse">
<stop stop-color="#FDC6C6"/>
<stop offset="1" stop-color="#FFCCA1"/>
</linearGradient>
<linearGradient id="paint22_linear_6_358" x1="399.365" y1="413.881" x2="396.668" y2="442.059" gradientUnits="userSpaceOnUse">
<stop stop-color="#FDC6C6"/>
<stop offset="1" stop-color="#FAB2B2"/>
</linearGradient>
<linearGradient id="paint23_linear_6_358" x1="465.04" y1="413.123" x2="462.808" y2="439.105" gradientUnits="userSpaceOnUse">
<stop stop-color="#FDC6C6"/>
<stop offset="1" stop-color="#FAB2B2"/>
</linearGradient>
<linearGradient id="paint24_linear_6_358" x1="398.153" y1="219.686" x2="395.055" y2="261.483" gradientUnits="userSpaceOnUse">
<stop stop-color="#FDC6C6"/>
<stop offset="1" stop-color="#FFCCA1"/>
</linearGradient>
<linearGradient id="paint25_linear_6_358" x1="476.824" y1="260.73" x2="473.833" y2="314.407" gradientUnits="userSpaceOnUse">
<stop stop-color="#FDC6C6"/>
<stop offset="1" stop-color="#FFCCA1"/>
</linearGradient>
</defs>
</svg>
