<svg width="575" height="496" viewBox="0 0 575 496" fill="none" xmlns="http://www.w3.org/2000/svg">
<path opacity="0.128511" fill-rule="evenodd" clip-rule="evenodd" d="M202.05 198.13C203.759 192.885 209.393 190.014 214.641 191.715L428.751 261.103C434.011 262.807 436.889 268.456 435.176 273.713L384.404 429.567C382.696 434.813 377.061 437.684 371.813 435.983L157.703 366.595C152.444 364.89 149.565 359.241 151.278 353.984L202.05 198.13Z" fill="url(#paint0_linear_13_3479)"/>
<path opacity="0.216285" fill-rule="evenodd" clip-rule="evenodd" d="M278.198 52.366C279.907 47.1204 285.541 44.2497 290.79 45.9505L530.488 123.631C535.747 125.335 538.626 130.984 536.913 136.241L479.983 311C478.274 316.246 472.64 319.116 467.392 317.416L227.693 239.735C222.434 238.031 219.555 232.382 221.268 227.125L278.198 52.366Z" fill="url(#paint1_linear_13_3479)"/>
<g opacity="0.226656" filter="url(#filter0_f_13_3479)">
<path fill-rule="evenodd" clip-rule="evenodd" d="M41.1162 17.7962C42.825 12.5507 48.4591 9.67996 53.7073 11.3808L178.733 51.8985C183.992 53.603 186.871 59.252 185.158 64.5089L156.249 153.25C154.54 158.496 148.906 161.367 143.658 159.666L18.6325 119.148C13.3729 117.444 10.4946 111.795 12.2072 106.538L41.1162 17.7962Z" fill="url(#paint2_linear_13_3479)"/>
</g>
<path opacity="0.216285" fill-rule="evenodd" clip-rule="evenodd" d="M437.009 373.355C438.718 368.11 444.352 365.239 449.6 366.94L503.548 384.423C508.807 386.128 511.685 391.777 509.973 397.033L481.064 485.775C479.355 491.021 473.721 493.891 468.473 492.191L414.525 474.707C409.266 473.003 406.387 467.354 408.1 462.097L437.009 373.355Z" fill="url(#paint3_linear_13_3479)"/>
<path opacity="0.128511" fill-rule="evenodd" clip-rule="evenodd" d="M522.273 276.284C523.982 271.038 529.616 268.168 534.864 269.869L565.119 279.673C570.379 281.378 573.257 287.027 571.544 292.284L554.029 346.051C552.32 351.297 546.686 354.168 541.438 352.467L511.183 342.662C505.923 340.957 503.045 335.308 504.757 330.052L522.273 276.284Z" fill="url(#paint4_linear_13_3479)"/>
<defs>
<filter id="filter0_f_13_3479" x="0.839764" y="0.0178642" width="195.686" height="171.011" filterUnits="userSpaceOnUse" color-interpolation-filters="sRGB">
<feFlood flood-opacity="0" result="BackgroundImageFix"/>
<feBlend mode="normal" in="SourceGraphic" in2="BackgroundImageFix" result="shape"/>
<feGaussianBlur stdDeviation="5.43656" result="effect1_foregroundBlur_13_3479"/>
</filter>
<linearGradient id="paint0_linear_13_3479" x1="46.2298" y1="392.784" x2="322.216" y2="540.197" gradientUnits="userSpaceOnUse">
<stop stop-color="#FAFEFF"/>
<stop offset="1" stop-color="#28C76F"/>
</linearGradient>
<linearGradient id="paint1_linear_13_3479" x1="145.137" y1="191.207" x2="304.377" y2="344.628" gradientUnits="userSpaceOnUse">
<stop stop-color="#FAFEFF"/>
<stop offset="1" stop-color="#00CFE8"/>
</linearGradient>
<linearGradient id="paint2_linear_13_3479" x1="-53.8552" y1="134.056" x2="116.616" y2="225.213" gradientUnits="userSpaceOnUse">
<stop stop-color="#FAFEFF"/>
<stop offset="1" stop-color="#77ECAB"/>
</linearGradient>
<linearGradient id="paint3_linear_13_3479" x1="386.134" y1="453.423" x2="443.346" y2="488.992" gradientUnits="userSpaceOnUse">
<stop stop-color="#FAFEFF"/>
<stop offset="1" stop-color="#00CFE8"/>
</linearGradient>
<linearGradient id="paint4_linear_13_3479" x1="476.343" y1="357.309" x2="537.884" y2="383.659" gradientUnits="userSpaceOnUse">
<stop stop-color="#FAFEFF"/>
<stop offset="1" stop-color="#28C76F"/>
</linearGradient>
</defs>
</svg>
