<svg width="154" height="30" viewBox="0 0 154 30" fill="none" xmlns="http://www.w3.org/2000/svg">
<rect x="123.656" width="30" height="30" rx="6" fill="#211F1F"/>
<path d="M141.62 18.1024C141.739 18.4515 141.799 18.8587 141.799 19.2077V21.4183C141.799 21.7673 141.56 22 141.203 22C140.846 22 140.608 21.7673 140.608 21.4183V19.1495C140.667 18.6842 140.489 18.3351 140.191 18.0443C140.012 17.8697 139.953 17.637 140.072 17.4625C140.131 17.2298 140.37 17.1135 140.548 17.0553C142.275 16.8808 143.883 16.2991 143.883 13.565C143.883 12.9251 143.645 12.2852 143.168 11.7616C142.99 11.5871 142.99 11.3544 143.049 11.1799C143.228 10.7145 143.228 10.2491 143.109 9.78377C142.811 9.84194 142.335 10.0165 141.56 10.54C141.441 10.6564 141.263 10.6564 141.084 10.5982C139.834 10.2491 138.464 10.2491 137.214 10.5982C137.035 10.6564 136.856 10.6564 136.678 10.54C135.963 10.0165 135.427 9.84194 135.13 9.78377C135.011 10.2491 135.011 10.7145 135.189 11.1799C135.249 11.4126 135.249 11.6453 135.07 11.7616C134.594 12.2852 134.356 12.9251 134.356 13.565C134.356 16.2991 135.963 16.8808 137.69 17.0553C137.928 17.0553 138.107 17.2298 138.166 17.4625C138.226 17.6952 138.166 17.9279 138.047 18.0443C137.75 18.3351 137.631 18.6842 137.631 19.0914V19.6149V19.6731V21.3601C137.631 21.7091 137.392 21.9418 137.035 21.9418C136.678 21.9418 136.44 21.7091 136.44 21.3601V20.3712C134.653 20.662 133.879 19.6731 133.343 19.0332C133.105 18.7423 132.927 18.5096 132.688 18.4515C132.391 18.3933 132.152 18.0443 132.272 17.7534C132.331 17.4625 132.688 17.2298 132.986 17.3462C133.582 17.5207 133.939 17.9279 134.296 18.3351C134.772 18.975 135.189 19.4404 136.44 19.2077V19.1495C136.44 18.8005 136.499 18.3933 136.618 18.1024C134.951 17.7534 133.165 16.7063 133.165 13.6231C133.165 12.7506 133.462 11.9361 133.998 11.2963C133.76 10.4818 133.82 9.7256 134.177 8.96936C134.237 8.79484 134.356 8.67849 134.534 8.62032C134.772 8.56215 135.546 8.4458 137.154 9.43473C138.464 9.14387 139.834 9.14387 141.084 9.43473C142.632 8.4458 143.466 8.56215 143.704 8.62032C143.883 8.67849 144.002 8.79484 144.061 8.96936C144.359 9.7256 144.419 10.4818 144.24 11.2381C144.776 11.878 145.074 12.6924 145.074 13.565C145.074 16.8808 143.049 17.8116 141.62 18.1024Z" fill="black"/>
<mask id="mask0_6_313" style="mask-type:luminance" maskUnits="userSpaceOnUse" x="132" y="8" width="14" height="14">
<path d="M141.62 18.1024C141.739 18.4515 141.799 18.8587 141.799 19.2077V21.4183C141.799 21.7673 141.56 22 141.203 22C140.846 22 140.608 21.7673 140.608 21.4183V19.1495C140.667 18.6842 140.489 18.3351 140.191 18.0443C140.012 17.8697 139.953 17.637 140.072 17.4625C140.131 17.2298 140.37 17.1135 140.548 17.0553C142.275 16.8808 143.883 16.2991 143.883 13.565C143.883 12.9251 143.645 12.2852 143.168 11.7616C142.99 11.5871 142.99 11.3544 143.049 11.1799C143.228 10.7145 143.228 10.2491 143.109 9.78377C142.811 9.84194 142.335 10.0165 141.56 10.54C141.441 10.6564 141.263 10.6564 141.084 10.5982C139.834 10.2491 138.464 10.2491 137.214 10.5982C137.035 10.6564 136.856 10.6564 136.678 10.54C135.963 10.0165 135.427 9.84194 135.13 9.78377C135.011 10.2491 135.011 10.7145 135.189 11.1799C135.249 11.4126 135.249 11.6453 135.07 11.7616C134.594 12.2852 134.356 12.9251 134.356 13.565C134.356 16.2991 135.963 16.8808 137.69 17.0553C137.928 17.0553 138.107 17.2298 138.166 17.4625C138.226 17.6952 138.166 17.9279 138.047 18.0443C137.75 18.3351 137.631 18.6842 137.631 19.0914V19.6149V19.6731V21.3601C137.631 21.7091 137.392 21.9418 137.035 21.9418C136.678 21.9418 136.44 21.7091 136.44 21.3601V20.3712C134.653 20.662 133.879 19.6731 133.343 19.0332C133.105 18.7423 132.927 18.5096 132.688 18.4515C132.391 18.3933 132.152 18.0443 132.272 17.7534C132.331 17.4625 132.688 17.2298 132.986 17.3462C133.582 17.5207 133.939 17.9279 134.296 18.3351C134.772 18.975 135.189 19.4404 136.44 19.2077V19.1495C136.44 18.8005 136.499 18.3933 136.618 18.1024C134.951 17.7534 133.165 16.7063 133.165 13.6231C133.165 12.7506 133.462 11.9361 133.998 11.2963C133.76 10.4818 133.82 9.7256 134.177 8.96936C134.237 8.79484 134.356 8.67849 134.534 8.62032C134.772 8.56215 135.546 8.4458 137.154 9.43473C138.464 9.14387 139.834 9.14387 141.084 9.43473C142.632 8.4458 143.466 8.56215 143.704 8.62032C143.883 8.67849 144.002 8.79484 144.061 8.96936C144.359 9.7256 144.419 10.4818 144.24 11.2381C144.776 11.878 145.074 12.6924 145.074 13.565C145.074 16.8808 143.049 17.8116 141.62 18.1024Z" fill="white"/>
</mask>
<g mask="url(#mask0_6_313)">
<rect x="131.656" y="8" width="14" height="14" fill="white"/>
</g>
<rect x="82.6562" width="30" height="30" rx="6" fill="#DB3236"/>
<path fill-rule="evenodd" clip-rule="evenodd" d="M102.324 9.75H92.9902C91.9986 9.75 91.2402 10.5083 91.2402 11.5V18.5C91.2402 19.4917 91.9986 20.25 92.9902 20.25H102.324C103.315 20.25 104.074 19.4917 104.074 18.5V11.5C104.074 10.5083 103.315 9.75 102.324 9.75ZM92.9902 10.9167H102.324C102.557 10.9167 102.732 11.0333 102.849 11.2667L97.6569 14.8833L92.4652 11.2667C92.5819 11.0333 92.7569 10.9167 92.9902 10.9167ZM92.4069 18.5C92.4069 18.85 92.6402 19.0833 92.9902 19.0833H102.324C102.674 19.0833 102.907 18.85 102.907 18.5V12.6083L98.0069 16.05C97.8902 16.1083 97.7736 16.1667 97.6569 16.1667C97.5402 16.1667 97.4236 16.1083 97.3069 16.05L92.4069 12.6083V18.5Z" fill="black"/>
<mask id="mask1_6_313" style="mask-type:luminance" maskUnits="userSpaceOnUse" x="91" y="9" width="14" height="12">
<path fill-rule="evenodd" clip-rule="evenodd" d="M102.324 9.75H92.9902C91.9986 9.75 91.2402 10.5083 91.2402 11.5V18.5C91.2402 19.4917 91.9986 20.25 92.9902 20.25H102.324C103.315 20.25 104.074 19.4917 104.074 18.5V11.5C104.074 10.5083 103.315 9.75 102.324 9.75ZM92.9902 10.9167H102.324C102.557 10.9167 102.732 11.0333 102.849 11.2667L97.6569 14.8833L92.4652 11.2667C92.5819 11.0333 92.7569 10.9167 92.9902 10.9167ZM92.4069 18.5C92.4069 18.85 92.6402 19.0833 92.9902 19.0833H102.324C102.674 19.0833 102.907 18.85 102.907 18.5V12.6083L98.0069 16.05C97.8902 16.1083 97.7736 16.1667 97.6569 16.1667C97.5402 16.1667 97.4236 16.1083 97.3069 16.05L92.4069 12.6083V18.5Z" fill="white"/>
</mask>
<g mask="url(#mask1_6_313)">
<rect x="90.6562" y="8" width="14" height="14" fill="white"/>
</g>
<rect x="41.6562" width="30" height="30" rx="6" fill="#00ACEE"/>
<path fill-rule="evenodd" clip-rule="evenodd" d="M62.768 9.27683C62.9426 9.1595 63.2336 9.1595 63.4083 9.27683C63.5829 9.39415 63.6993 9.6288 63.6411 9.86345C63.4665 10.6847 63.059 11.4473 62.4769 12.0926V12.3859C62.4769 15.6124 61.0799 18.3109 58.577 19.7188C57.2964 20.4814 55.8994 20.8334 54.4442 20.8334C52.989 20.8334 51.4173 20.4227 49.9621 19.6014C49.7293 19.4841 49.6129 19.1908 49.6711 18.9562C49.7293 18.7215 50.0203 18.5455 50.2532 18.5455C51.2427 18.5455 52.2323 18.3695 53.1054 17.9589C50.9517 16.6096 50.3696 14.7324 50.3114 13.2659C50.2532 11.5647 50.8353 10.1568 50.8935 10.0981C50.9517 9.92212 51.1263 9.74613 51.3591 9.74613C51.592 9.74613 51.7666 9.80479 51.883 9.98078C52.8725 11.3887 54.386 12.2686 56.074 12.3859C56.074 11.4473 56.4815 10.5674 57.2382 9.98078C58.4606 8.86619 60.265 8.92485 61.4292 9.98078C61.8949 9.80479 62.3605 9.57014 62.768 9.27683ZM61.2546 12.034C61.2546 11.858 61.3128 11.6233 61.4292 11.506C61.4874 11.418 61.5456 11.3447 61.6038 11.2714C61.662 11.198 61.7202 11.1247 61.7784 11.0367C61.7202 11.066 61.6475 11.0807 61.5747 11.0954C61.5019 11.11 61.4292 11.1247 61.371 11.154C61.1964 11.2127 60.9635 11.154 60.7889 10.978C60.0904 10.1568 58.7516 10.0394 57.9367 10.8021C57.471 11.2127 57.2382 11.7993 57.2382 12.3859V12.9726C57.2382 13.2659 56.9471 13.5592 56.6561 13.5592C54.7352 13.6179 52.9308 12.8552 51.6502 11.5647C51.3009 13.0312 51.1845 15.9057 54.5606 17.4309C54.7352 17.4896 54.9098 17.6656 54.9098 17.9002C54.9098 18.1349 54.8516 18.3109 54.6188 18.4282C53.9785 18.8975 53.28 19.1908 52.5233 19.4255C54.4442 19.8948 56.3651 19.6601 57.9949 18.7215C60.0904 17.4896 61.3128 15.2017 61.3128 12.3859C61.3128 12.2686 61.3128 12.1513 61.2546 12.034Z" fill="black"/>
<mask id="mask2_6_313" style="mask-type:luminance" maskUnits="userSpaceOnUse" x="49" y="9" width="15" height="12">
<path fill-rule="evenodd" clip-rule="evenodd" d="M62.768 9.27683C62.9426 9.1595 63.2336 9.1595 63.4083 9.27683C63.5829 9.39415 63.6993 9.6288 63.6411 9.86345C63.4665 10.6847 63.059 11.4473 62.4769 12.0926V12.3859C62.4769 15.6124 61.0799 18.3109 58.577 19.7188C57.2964 20.4814 55.8994 20.8334 54.4442 20.8334C52.989 20.8334 51.4173 20.4227 49.9621 19.6014C49.7293 19.4841 49.6129 19.1908 49.6711 18.9562C49.7293 18.7215 50.0203 18.5455 50.2532 18.5455C51.2427 18.5455 52.2323 18.3695 53.1054 17.9589C50.9517 16.6096 50.3696 14.7324 50.3114 13.2659C50.2532 11.5647 50.8353 10.1568 50.8935 10.0981C50.9517 9.92212 51.1263 9.74613 51.3591 9.74613C51.592 9.74613 51.7666 9.80479 51.883 9.98078C52.8725 11.3887 54.386 12.2686 56.074 12.3859C56.074 11.4473 56.4815 10.5674 57.2382 9.98078C58.4606 8.86619 60.265 8.92485 61.4292 9.98078C61.8949 9.80479 62.3605 9.57014 62.768 9.27683ZM61.2546 12.034C61.2546 11.858 61.3128 11.6233 61.4292 11.506C61.4874 11.418 61.5456 11.3447 61.6038 11.2714C61.662 11.198 61.7202 11.1247 61.7784 11.0367C61.7202 11.066 61.6475 11.0807 61.5747 11.0954C61.5019 11.11 61.4292 11.1247 61.371 11.154C61.1964 11.2127 60.9635 11.154 60.7889 10.978C60.0904 10.1568 58.7516 10.0394 57.9367 10.8021C57.471 11.2127 57.2382 11.7993 57.2382 12.3859V12.9726C57.2382 13.2659 56.9471 13.5592 56.6561 13.5592C54.7352 13.6179 52.9308 12.8552 51.6502 11.5647C51.3009 13.0312 51.1845 15.9057 54.5606 17.4309C54.7352 17.4896 54.9098 17.6656 54.9098 17.9002C54.9098 18.1349 54.8516 18.3109 54.6188 18.4282C53.9785 18.8975 53.28 19.1908 52.5233 19.4255C54.4442 19.8948 56.3651 19.6601 57.9949 18.7215C60.0904 17.4896 61.3128 15.2017 61.3128 12.3859C61.3128 12.2686 61.3128 12.1513 61.2546 12.034Z" fill="white"/>
</mask>
<g mask="url(#mask2_6_313)">
<rect x="49.6562" y="8" width="14" height="14" fill="white"/>
</g>
<rect x="0.65625" width="30" height="30" rx="6" fill="#3B5998"/>
<path fill-rule="evenodd" clip-rule="evenodd" d="M19.7168 11.5C19.7168 11.85 19.4841 12.0833 19.1352 12.0833H17.3905V13.25H19.1352C19.3097 13.25 19.4841 13.25 19.6005 13.425C19.7168 13.6 19.7749 13.775 19.7168 13.95L19.1352 16.2833C19.077 16.575 18.8444 16.75 18.5536 16.75H17.3905V20.8333C17.3905 21.1833 17.1578 21.4166 16.8089 21.4166H14.4826C14.1336 21.4166 13.901 21.1833 13.901 20.8333V16.75H12.7378C12.3889 16.75 12.1562 16.5166 12.1562 16.1666V13.8333C12.1562 13.4833 12.3889 13.25 12.7378 13.25H13.901V12.0833C13.901 10.1583 15.4712 8.58331 17.3905 8.58331H19.1352C19.4841 8.58331 19.7168 8.81665 19.7168 9.16665V11.5ZM18.3791 14.4166H16.8089C16.4599 14.4166 16.2273 14.1833 16.2273 13.8333V12.0833C16.2273 11.4416 16.7507 10.9166 17.3905 10.9166H18.5536V9.74998H17.3905C16.111 9.74998 15.0641 10.8 15.0641 12.0833V13.8333C15.0641 14.1833 14.8315 14.4166 14.4826 14.4166H13.3194V15.5833H14.4826C14.8315 15.5833 15.0641 15.8166 15.0641 16.1666V20.25H16.2273V16.1666C16.2273 15.8166 16.4599 15.5833 16.8089 15.5833H18.0883L18.3791 14.4166Z" fill="black"/>
<mask id="mask3_6_313" style="mask-type:luminance" maskUnits="userSpaceOnUse" x="12" y="8" width="8" height="14">
<path fill-rule="evenodd" clip-rule="evenodd" d="M19.7168 11.5C19.7168 11.85 19.4841 12.0833 19.1352 12.0833H17.3905V13.25H19.1352C19.3097 13.25 19.4841 13.25 19.6005 13.425C19.7168 13.6 19.7749 13.775 19.7168 13.95L19.1352 16.2833C19.077 16.575 18.8444 16.75 18.5536 16.75H17.3905V20.8333C17.3905 21.1833 17.1578 21.4166 16.8089 21.4166H14.4826C14.1336 21.4166 13.901 21.1833 13.901 20.8333V16.75H12.7378C12.3889 16.75 12.1562 16.5166 12.1562 16.1666V13.8333C12.1562 13.4833 12.3889 13.25 12.7378 13.25H13.901V12.0833C13.901 10.1583 15.4712 8.58331 17.3905 8.58331H19.1352C19.4841 8.58331 19.7168 8.81665 19.7168 9.16665V11.5ZM18.3791 14.4166H16.8089C16.4599 14.4166 16.2273 14.1833 16.2273 13.8333V12.0833C16.2273 11.4416 16.7507 10.9166 17.3905 10.9166H18.5536V9.74998H17.3905C16.111 9.74998 15.0641 10.8 15.0641 12.0833V13.8333C15.0641 14.1833 14.8315 14.4166 14.4826 14.4166H13.3194V15.5833H14.4826C14.8315 15.5833 15.0641 15.8166 15.0641 16.1666V20.25H16.2273V16.1666C16.2273 15.8166 16.4599 15.5833 16.8089 15.5833H18.0883L18.3791 14.4166Z" fill="white"/>
</mask>
<g mask="url(#mask3_6_313)">
<rect x="8.65625" y="8" width="14" height="14" fill="white"/>
</g>
</svg>
